<svg xmlns="http://www.w3.org/2000/svg" width="52.01" height="61.25" viewBox="0 0 52.01 61.25">
	<g id="Group_12705" data-name="Group 12705" transform="translate(-7857.75 -10952)">
		<path id="Rectangle_1838" data-name="Rectangle 1838" d="M-.75-.75H17.587V17.587H-.75ZM16.087.75H.75V16.087H16.087Z" transform="translate(7858.5 10978.827)" fill="#fff" />
		<path id="Path_10623" data-name="Path 10623" d="M41.019,100.944l4.168,8.343,4.168,8.343H32.683l4.168-8.343Z" transform="translate(7834.35 10878.033)" fill="#fff" fill-rule="evenodd" />
		<path id="Path_10623_-_Outline" data-name="Path 10623 - Outline" d="M41.019,99.825l9.144,18.305H31.875Zm7.527,17.305-7.527-15.068L33.492,117.13Z" transform="translate(7834.35 10878.033)" fill="#fff" />
		<path id="Rectangle_1840" data-name="Rectangle 1840" d="M-.75-.75H17.587V17.587H-.75ZM16.087.75H.75V16.087H16.087Z" transform="translate(7892.173 10978.827)" fill="#fff" />
		<path id="Path_10625" data-name="Path 10625" d="M103.774,100.944l-4.168,8.343-4.168,8.343h16.671l-4.168-8.343Z" transform="translate(7788.367 10878.033)" fill="#fff" fill-rule="evenodd" />
		<path id="Path_10625_-_Outline" data-name="Path 10625 - Outline" d="M103.774,99.825l9.144,18.305H94.629ZM111.3,117.13l-7.527-15.068L96.247,117.13Z" transform="translate(7788.367 10878.033)" fill="#fff" />
		<path id="Rectangle_1842" data-name="Rectangle 1842" d="M-.75-.75H17.587V17.587H-.75ZM16.087.75H.75V16.087H16.087Z" transform="translate(7858.5 10995.663)" fill="#fff" />
		<path id="Path_10627" data-name="Path 10627" d="M5.229,172.286l-4.168,8.343H17.732l-4.168-8.343L9.4,163.943Z" transform="translate(7857.521 10831.87)" fill="#fff" />
		<path id="Path_10627_-_Outline" data-name="Path 10627 - Outline" d="M18.541,181.129H.253L9.4,162.824Zm-16.671-1H16.923L9.4,165.062Z" transform="translate(7857.521 10831.87)" fill="#fff" />
		<path id="Rectangle_1844" data-name="Rectangle 1844" d="M-.75-.75H17.587V17.587H-.75ZM16.087.75H.75V16.087H16.087Z" transform="translate(7875.336 10995.663)" fill="#fff" />
		<path id="Path_10629" data-name="Path 10629" d="M68.229,172.286l-4.168,8.343H80.732l-4.168-8.343L72.4,163.943Z" transform="translate(7811.358 10831.87)" fill="#fff" />
		<path id="Path_10629_-_Outline" data-name="Path 10629 - Outline" d="M81.541,181.129H63.253L72.4,162.824Zm-16.671-1H79.923L72.4,165.062Z" transform="translate(7811.358 10831.87)" fill="#fff" />
		<path id="Rectangle_1846" data-name="Rectangle 1846" d="M-.75-.75H17.587V17.587H-.75ZM16.087.75H.75V16.087H16.087Z" transform="translate(7892.173 10995.663)" fill="#fff" />
		<path id="Path_10631" data-name="Path 10631" d="M131.229,172.286l-4.168,8.343h16.671l-4.168-8.343-4.168-8.343Z" transform="translate(7765.195 10831.87)" fill="#fff" />
		<path id="Path_10631_-_Outline" data-name="Path 10631 - Outline" d="M144.541,181.129H126.253l9.144-18.305Zm-16.671-1h15.054L135.4,165.062Z" transform="translate(7765.195 10831.87)" fill="#fff" />
		<path id="Rectangle_1848" data-name="Rectangle 1848" d="M-.75-.75H17.587V17.587H-.75ZM16.087.75H.75V16.087H16.087Z" transform="translate(7858.5 10961.989)" fill="#fff" />
		<path id="Rectangle_1850" data-name="Rectangle 1850" d="M-.75-.75H17.587V17.587H-.75ZM16.087.75H.75V16.087H16.087Z" transform="translate(7875.336 10961.989)" fill="#fff" />
		<path id="Path_10633" data-name="Path 10633" d="M72.4,37.94l4.168,8.343,4.168,8.343H64.061l4.168-8.343Z" transform="translate(7811.358 10924.199)" fill="#fff" fill-rule="evenodd" />
		<path id="Path_10633_-_Outline" data-name="Path 10633 - Outline" d="M72.4,36.821,81.54,55.127H63.252Zm7.527,17.305L72.4,39.059,64.869,54.127Z" transform="translate(7811.358 10924.199)" fill="#fff" />
		<path id="Rectangle_1851" data-name="Rectangle 1851" d="M-.75-.75H17.587V17.587H-.75ZM16.087.75H.75V16.087H16.087Z" transform="translate(7892.173 10961.989)" fill="#fff" />
		<path id="Path_10635" data-name="Path 10635" d="M11.1,5.3h3.416L12.905,1.8ZM7.51,8.916V8.295a2.056,2.056,0,0,0,.914-.334,2.661,2.661,0,0,0,.7-.876L12.94,0h2.019L18.68,7.226A1.94,1.94,0,0,0,19.315,8a2.359,2.359,0,0,0,.989.292v.622H14.2V8.295a4.167,4.167,0,0,0,1.132-.155.411.411,0,0,0,.316-.387,1.22,1.22,0,0,0-.118-.383.166.166,0,0,1-.017-.041L14.891,5.92H10.785l-.514,1.109-.017.043a1.711,1.711,0,0,0-.21.619.422.422,0,0,0,.284.4,3.643,3.643,0,0,0,1.046.2v.622Z" transform="translate(7852.796 10951.999)" fill="#fff" />
		<path id="Path_10636" data-name="Path 10636" d="M58.2.61h-.161V7.267c0,.414.1.681.3.8a3.577,3.577,0,0,0,1.379.226v.622H55.326V8.295A3.544,3.544,0,0,0,56.7,8.068c.192-.12.29-.387.29-.8V1.65c0-.414-.1-.681-.29-.8A3.551,3.551,0,0,0,55.326.623V0H60.8L63.565,6,66.148,0h5.53V.623a3.5,3.5,0,0,0-1.388.23c-.2.12-.3.387-.3.8V7.267c0,.41.1.677.3.8a3.522,3.522,0,0,0,1.385.23v.622H65.324V8.295A3.541,3.541,0,0,0,66.7,8.068c.193-.12.29-.387.29-.8V.61h-.135L63.287,8.916H62.026Z" transform="translate(7817.759 10951.999)" fill="#fff" />
		<path id="Path_10637" data-name="Path 10637" d="M124.54,7.267a.852.852,0,0,0,.3.783,3.534,3.534,0,0,0,1.356.245v.622h-6.254V8.295a2.876,2.876,0,0,0,1.21-.245.9.9,0,0,0,.273-.783V1.65a.9.9,0,0,0-.273-.783,2.877,2.877,0,0,0-1.21-.245V0H131.4l.244,3h-.951a2.7,2.7,0,0,0-1.333-1.8,6.006,6.006,0,0,0-2.9-.577A4.228,4.228,0,0,0,124.9.8c-.244.122-.365.4-.365.846V3.98h.707a2.672,2.672,0,0,0,1.646-.424,1.915,1.915,0,0,0,.669-1.349h.859V6.4h-.859a1.915,1.915,0,0,0-.669-1.349,2.67,2.67,0,0,0-1.646-.424h-.707Z" transform="translate(7770.411 10951.999)" fill="#fff" />
		<path id="Path_10638" data-name="Path 10638" d="M167.725,1.649a.9.9,0,0,0-.273-.783,2.881,2.881,0,0,0-1.21-.245V0h6.062V.622a2.8,2.8,0,0,0-1.192.237c-.181.12-.273.385-.273.791V7.266c0,.406.092.671.273.791a2.8,2.8,0,0,0,1.192.236v.622h-6.062V8.294a2.878,2.878,0,0,0,1.21-.245.9.9,0,0,0,.273-.783Z" transform="translate(7736.484 10952)" fill="#fff" />
	</g>
</svg>
