<svg id="Group_12674" data-name="Group 12674" xmlns="http://www.w3.org/2000/svg" xmlns:xlink="http://www.w3.org/1999/xlink" width="88.554" height="60.495" viewBox="0 0 88.554 60.495">
	<defs>
		<clipPath id="clip-path">
			<rect id="Rectangle_1837" data-name="Rectangle 1837" width="88.554" height="60.495" fill="#fff" />
		</clipPath>
	</defs>
	<g id="Group_12673" data-name="Group 12673" clip-path="url(#clip-path)">
		<path id="Path_10614" data-name="Path 10614" d="M11.417,30.239c-2.97,0-5.94.01-8.91,0A2.237,2.237,0,0,1,.163,27.64a2.344,2.344,0,0,1,2.508-2.06c1.941-.02,3.882-.007,5.823-.007,3.6,0,7.2.014,10.8-.007a4.132,4.132,0,0,0,4.159-4.412,4.261,4.261,0,0,0-4.418-3.68c-2.713-.027-5.426-.008-8.139-.008-2.689,0-5.379.015-8.068-.013a3.534,3.534,0,0,1-1.48-.307A2.166,2.166,0,0,1,.208,14.609a2.258,2.258,0,0,1,2.063-1.8c.232-.022.467-.014.7-.014,5.379,0,10.758.006,16.137-.006a4.3,4.3,0,0,0,3.844-2.163,3.929,3.929,0,0,0-2.341-5.693,6.015,6.015,0,0,0-1.8-.235c-5.379-.018-10.758,0-16.137-.016A2.351,2.351,0,0,1,.4,1.205,2.263,2.263,0,0,1,2.616.007q5.333,0,10.664,0c2.128,0,4.257-.018,6.384.01a8.842,8.842,0,0,1,8.72,8.954,7.944,7.944,0,0,1-2.2,5.4c-.523.559-.517.909-.046,1.441a8.423,8.423,0,0,1,.305,11.1,8.9,8.9,0,0,1-7.307,3.342c-2.572-.025-5.145-.006-7.717-.006" transform="translate(-0.065 0)" fill="#fff" />
		<path id="Path_10615" data-name="Path 10615" d="M168.816,30.246c-2.713,0-5.425.006-8.139,0a8.91,8.91,0,0,1-8.749-6.864,8.1,8.1,0,0,1,2.191-7.7c.431-.433.4-.668.019-1.071a8.291,8.291,0,0,1-1.906-8.646A8.3,8.3,0,0,1,156.238,1.2,8.282,8.282,0,0,1,160.444.023Q168.968,0,177.493.017a2.3,2.3,0,0,1,2.4,3.03,2.359,2.359,0,0,1-2.155,1.631c-.4.025-.8.011-1.192.011q-7.787,0-15.575,0a4.288,4.288,0,0,0-4.172,3.032,4.128,4.128,0,0,0,4.135,5.069c5.4.012,10.8,0,16.207.009a5.678,5.678,0,0,1,1.179.12,2.075,2.075,0,0,1,1.648,1.872,2,2,0,0,1-.891,2.14,3.715,3.715,0,0,1-1.836.518c-5.4.039-10.8.017-16.206.026a4.288,4.288,0,0,0-4.3,3.248,3.923,3.923,0,0,0,2.314,4.4,6.135,6.135,0,0,0,2.244.431c5.332.036,10.664.022,16,.017a2.475,2.475,0,0,1,2.4,1.155,2.327,2.327,0,0,1-2.1,3.509c-2.923.021-5.847.006-8.77.006" transform="translate(-91.494 -0.006)" fill="#fff" />
		<path id="Path_10616" data-name="Path 10616" d="M93.654.007c2.9,0,5.8-.017,8.7.008a2.294,2.294,0,0,1,2.293,3.055,2.33,2.33,0,0,1-2.3,1.61c-3.252.008-6.5,0-9.755,0-2.339,0-4.679-.015-7.018.006a4.184,4.184,0,0,0-4.143,3.651A3.854,3.854,0,0,0,83.826,12.3a9.047,9.047,0,0,0,2.58.47c3.18.056,6.362.015,9.544.027a9.2,9.2,0,0,1,8.457,6.076,8.759,8.759,0,0,1-3.657,9.921,9.6,9.6,0,0,1-5.192,1.455c-5.544-.012-11.087,0-16.632-.01a2.33,2.33,0,1,1,.121-4.653c1.754-.026,3.509-.009,5.263-.009,3.789,0,7.579.013,11.368-.006a4.115,4.115,0,0,0,4.172-4.18,4.159,4.159,0,0,0-4.18-3.911q-5.018-.036-10.035-.006A9.016,9.016,0,0,1,78.75,14.5a8.35,8.35,0,0,1-1.07-10.028A8.72,8.72,0,0,1,85.654.007q4-.007,8,0" transform="translate(-46.123 -0.001)" fill="#fff" />
		<path id="Path_10617" data-name="Path 10617" d="M165.441,108.742c-.587,1.156-1.188,2.306-1.758,3.47-.46.938-.847,1.914-1.347,2.828a1.249,1.249,0,0,1-.861.45c-.48.06-.983-.081-1.465-.029a1.392,1.392,0,0,1-1.517-.954c-.695-1.392-1.448-2.755-2.154-4.141-.247-.485-.427-1.006-.637-1.51l-.227.034c-.02.255-.056.511-.056.766q-.005,4.631,0,9.263c0,1-.092,1.06-1.078,1.039-.839-.018-1.68.023-2.519.068-.565.031-.892-.235-.892-.8q0-9.4,0-18.8c0-.257,0-.515.012-.772.027-.646.313-.973,1.014-.938.887.043,1.783-.045,2.663.044a1.424,1.424,0,0,1,.973.619c.562,1.038,1,2.14,1.51,3.209q1.45,3.063,2.931,6.111a2.714,2.714,0,0,0,.529.574,3.6,3.6,0,0,0,.443-.574q1.752-3.545,3.479-7.1c.377-.775.693-1.582,1.111-2.334a1.1,1.1,0,0,1,.772-.518c4.186-.029,8.373-.015,12.559-.017.5,0,.647.257.641.706-.012.865-.026,1.732,0,2.6.019.587-.234.775-.8.771-2.549-.016-5.1-.008-7.648-.006-.963,0-1.09.122-1.1,1.091s.012,1.918-.007,2.877c-.011.561.209.807.786.8,2.22-.041,4.44-.051,6.66-.095.44-.009.678.13.681.578,0,.935.008,1.871,0,2.806,0,.338-.125.559-.545.56-2.242,0-4.485.052-6.727.035-.451,0-.671.131-.742.53a5.642,5.642,0,0,0-.1,1.042c.024,2.1.062,4.205.1,6.308.007.4-.173.618-.583.616-1.076,0-2.151-.012-3.228-.015-.607,0-.732-.395-.728-.891q.036-4.208.074-8.416c.005-.616,0-1.231,0-1.847l-.219-.04" transform="translate(-91.017 -59.534)" fill="#fff" />
		<path id="Path_10618" data-name="Path 10618" d="M55.371,119.93c-3.977,0-7.953.013-11.929-.007a4.414,4.414,0,0,1-3.813-1.7,5.339,5.339,0,0,1-1.009-3.2c-.031-2.55-.007-5.1-.01-7.65,0-.937-.108-1.04-1.049-1.056-1.116-.02-1.171-.069-1.19-1.2-.012-.678,0-1.357-.005-2.035,0-.626.32-.891.925-.861.21.01.421.025.63.018a.626.626,0,0,0,.686-.7q0-.982.012-1.965c.009-.549.223-.871.847-.85.935.031,1.871.025,2.806,0,.564-.012.822.23.818.788,0,.678.021,1.358,0,2.035-.015.529.221.808.735.806q2.979-.013,5.96-.056c.7-.009,1.4-.09,2.092-.05.56.032.435.5.283.791-.333.638-.739,1.239-1.115,1.855-.121.2-.326.391-.348.6-.08.782-.625.821-1.2.822-1.848,0-3.7.021-5.544-.007-.632-.009-.872.2-.864.851.028,2.152,0,4.3.014,6.456.006,1.12.451,1.548,1.579,1.548,6.432,0,12.866.071,19.3-.048a2.859,2.859,0,0,1,2.737,1.764c.476.763.983,1.508,1.456,2.273.1.162.211.5.15.548a1.147,1.147,0,0,1-.67.254c-4.093.014-8.186.01-12.279.01v-.025" transform="translate(-21.931 -59.527)" fill="#fff" />
		<path id="Path_10619" data-name="Path 10619" d="M9.337,98.73c1.216,0,2.432.01,3.648,0,.528-.006.765.208.774.746.011.723.081,1.444.109,2.167.037.942-.2,1.143-1.125,1.138-1.889-.01-3.778,0-5.666.039a1.983,1.983,0,0,0-1.87,1.829,2.135,2.135,0,0,0,1.86,2.142,33.082,33.082,0,0,1,5.2,1.051,4.919,4.919,0,0,1,3.451,4.573c0,.608,0,1.216,0,1.824a5.106,5.106,0,0,1-2.3,4.186,7.519,7.519,0,0,1-4.828,1.525,26.521,26.521,0,0,1-3.618-.164,10.167,10.167,0,0,1-4.409-2.023.738.738,0,0,1-.028-1.165c.537-.52,1.082-1.032,1.616-1.556.688-.674,1.052-.7,1.819-.156a6.813,6.813,0,0,0,6.071.812,2.079,2.079,0,0,0,1.149-3.1,3.485,3.485,0,0,0-1.9-1.172c-1.524-.381-3.112-.5-4.647-.849a4.579,4.579,0,0,1-1.622-.913c-2.24-1.7-2.265-4.019-1.854-6.513a5.507,5.507,0,0,1,1.362-2.938A4.6,4.6,0,0,1,5.9,98.729c1.146.02,2.292,0,3.438,0Z" transform="translate(-0.158 -59.536)" fill="#fff" />
		<path id="Path_10620" data-name="Path 10620" d="M44.348,84.528H87.5c.973,0,1.048.065,1.043.856s-.095.87-1.2.87H10.021q-4.491,0-8.981,0a.918.918,0,0,1-.9-1.427.652.652,0,0,1,.428-.276,4.063,4.063,0,0,1,.769-.023H44.348" transform="translate(0 -50.971)" fill="#fff" />
		<path id="Path_10621" data-name="Path 10621" d="M98.709,112.8a28.968,28.968,0,0,0,3.02-1.262,4.908,4.908,0,0,0,2.5-4.488,6.412,6.412,0,0,0-.252-1.922,3.184,3.184,0,0,0-3.252-2.477c-2.36-.024-4.721.06-7.081.036a1.572,1.572,0,0,1-1.116-.528,26.613,26.613,0,0,1-1.633-2.69c-.3-.547-.161-.768.484-.769,3.6-.006,7.208-.1,10.8.048a5.873,5.873,0,0,1,4.767,2.694,9.732,9.732,0,0,1,1.77,5.49,8.358,8.358,0,0,1-3.354,7.259c-.414.3-.39.547-.16.928q1.165,1.929,2.287,3.884a3.676,3.676,0,0,1,.245.827,6.706,6.706,0,0,1-.792.092c-1.146,0-2.294.027-3.436-.04a1.378,1.378,0,0,1-.977-.491c-1.257-2.038-2.454-4.112-3.664-6.178a2.119,2.119,0,0,1-.159-.411" transform="translate(-54.722 -59.501)" fill="#fff" />
		<path id="Path_10622" data-name="Path 10622" d="M74.481,98.945c.776,1.292,1.55,2.587,2.33,3.877.607,1,1.244,1.987,1.831,3,.4.686.715,1.416,1.093,2.114.265.489.564.96.858,1.433.429.689.9,1.357,1.288,2.067.167.3.345.768.225,1.021-.191.4-.666.4-1.116.253a2.9,2.9,0,0,0-.9-.095q-5.469-.009-10.939,0c-.673,0-1.352.092-2.018.033s-.782-.368-.453-.94c1.286-2.231,2.552-4.474,3.856-6.694.967-1.646,1.982-3.263,2.971-4.9.242-.4.464-.81.7-1.216l.276.044" transform="translate(-40.105 -59.643)" fill="#fff" />
	</g>
</svg>
