<svg xmlns="http://www.w3.org/2000/svg" width="24" height="24" viewBox="0 0 24 24">
	<g id="Group_12337" data-name="Group 12337" transform="translate(0)">
		<g id="Path_656" data-name="Path 656" transform="translate(0 0)" fill="#fff" opacity="0">
			<path d="M 23.5 23.5 L 0.5 23.5 L 0.5 0.5 L 23.5 0.5 L 23.5 23.5 Z" stroke="none" />
			<path d="M 1 1 L 1 23 L 23 23 L 23 1 L 1 1 M 0 0 L 24 0 L 24 24 L 0 24 L 0 0 Z" stroke="none" fill="#707070" />
		</g>
		<path id="Polygon_13" data-name="Polygon 13" d="M9.369,1.209a1,1,0,0,1,1.652,0l8.3,12.156a1,1,0,0,1-.826,1.564H1.894a1,1,0,0,1-.826-1.564Z" transform="translate(22.085 19.429) rotate(180)" fill="#31353f" />
	</g>
</svg>
