<svg xmlns="http://www.w3.org/2000/svg" width="24" height="24" viewBox="0 0 24 24">
	<g id="Group_12660" data-name="Group 12660" transform="translate(-1383 -5269)">
		<rect id="Rectangle_1834" data-name="Rectangle 1834" width="24" height="24" transform="translate(1383 5269)" fill="#fff" opacity="0" />
		<g id="Group_211" data-name="Group 211" transform="translate(-2583.705 4004.901)">
			<path id="Path_216" data-name="Path 216" d="M3981.76,1269.832c.573-.019,1.144,0,1.719,0h.236v-2.977c-.306-.03-.626-.074-.946-.09-.587-.026-1.175-.056-1.762-.043a4.325,4.325,0,0,0-2.488.769,3.723,3.723,0,0,0-1.494,2.486,8.656,8.656,0,0,0-.1,1.277c-.016.668,0,1.336,0,2v.25h-2.848v3.325h2.832v8.358h3.461v-8.344h2.822c.145-1.106.286-2.2.434-3.341h-.634c-.8,0-2.646,0-2.646,0s.008-1.648.028-2.363C3980.4,1270.159,3980.976,1269.86,3981.76,1269.832Z" transform="translate(0 0)" fill="#fff" fill-rule="evenodd" />
		</g>
	</g>
</svg>
