<svg id="google-icon" xmlns="http://www.w3.org/2000/svg" width="19.533" height="19.931" viewBox="0 0 19.533 19.931">
	<path id="Shape" d="M9.567,2.037A8.54,8.54,0,0,0,9.357,0H0V3.7H5.492A4.87,4.87,0,0,1,3.455,6.932l-.019.124L6.395,9.347l.2.02a9.744,9.744,0,0,0,2.968-7.33" transform="translate(9.966 8.15)" fill="#4285f4" />
	<path id="Shape-2" data-name="Shape" d="M8.9,7.995a9.5,9.5,0,0,0,6.6-2.414L12.357,3.145a5.9,5.9,0,0,1-3.455,1A6,6,0,0,1,3.233,0L3.116.01.04,2.391,0,2.5A9.958,9.958,0,0,0,8.9,7.995" transform="translate(1.063 11.937)" fill="#34a853" />
	<path id="Shape-3" data-name="Shape" d="M4.3,6.493a6.135,6.135,0,0,1-.332-1.971,6.447,6.447,0,0,1,.321-1.971L4.28,2.419,1.165,0l-.1.048A9.945,9.945,0,0,0,1.063,9L4.3,6.493" transform="translate(0 5.444)" fill="#fbbc05" />
	<path id="Shape-4" data-name="Shape" d="M8.9,3.853a5.523,5.523,0,0,1,3.853,1.484l2.813-2.746A9.575,9.575,0,0,0,8.9,0,9.958,9.958,0,0,0,0,5.492l3.222,2.5A6.024,6.024,0,0,1,8.9,3.853" transform="translate(1.063)" fill="#eb4335" />
</svg>
