<svg xmlns="http://www.w3.org/2000/svg" width="24" height="24" viewBox="0 0 24 24">
	<g id="Group_12670" data-name="Group 12670" transform="translate(-8687 -10030)">
		<rect id="Rectangle_1836" data-name="Rectangle 1836" width="24" height="24" transform="translate(8687 10030)" fill="#fff" opacity="0" />
		<g id="Instagram-Glyph-Black-Logo.wine" transform="translate(8689.439 10032.439)">
			<path id="Path_10602" data-name="Path 10602" d="M9.753,0C7.1,0,6.772.011,5.732.059A7.16,7.16,0,0,0,3.364.512,4.781,4.781,0,0,0,1.637,1.637,4.78,4.78,0,0,0,.512,3.364,7.159,7.159,0,0,0,.059,5.732C.011,6.772,0,7.1,0,9.753s.011,2.981.059,4.021a7.159,7.159,0,0,0,.453,2.367,4.781,4.781,0,0,0,1.125,1.727,4.781,4.781,0,0,0,1.727,1.125,7.16,7.16,0,0,0,2.367.453c1.04.047,1.372.059,4.021.059s2.981-.011,4.021-.059a7.159,7.159,0,0,0,2.367-.453,4.987,4.987,0,0,0,2.852-2.852,7.159,7.159,0,0,0,.453-2.367c.047-1.04.059-1.372.059-4.021s-.011-2.981-.059-4.021a7.159,7.159,0,0,0-.453-2.367,4.781,4.781,0,0,0-1.125-1.727A4.781,4.781,0,0,0,16.141.512,7.159,7.159,0,0,0,13.774.059C12.734.011,12.4,0,9.753,0Zm0,1.757c2.6,0,2.913.01,3.941.057A5.4,5.4,0,0,1,15.5,2.15a3.021,3.021,0,0,1,1.121.73A3.022,3.022,0,0,1,17.356,4a5.4,5.4,0,0,1,.336,1.811c.047,1.028.057,1.337.057,3.941s-.01,2.913-.057,3.941a5.4,5.4,0,0,1-.336,1.811A3.23,3.23,0,0,1,15.5,17.356a5.4,5.4,0,0,1-1.811.336c-1.028.047-1.337.057-3.941.057s-2.913-.01-3.941-.057A5.4,5.4,0,0,1,4,17.356a3.021,3.021,0,0,1-1.121-.73A3.022,3.022,0,0,1,2.15,15.5a5.4,5.4,0,0,1-.336-1.811c-.047-1.028-.057-1.337-.057-3.941s.01-2.913.057-3.941A5.4,5.4,0,0,1,2.15,4,3.022,3.022,0,0,1,2.88,2.88,3.022,3.022,0,0,1,4,2.15a5.4,5.4,0,0,1,1.811-.336c1.028-.047,1.337-.057,3.941-.057" fill="#fff" />
			<path id="Path_10603" data-name="Path 10603" d="M168.416,125.913a3.251,3.251,0,1,1,3.251-3.251A3.251,3.251,0,0,1,168.416,125.913Zm0-8.259a5.008,5.008,0,1,0,5.008,5.008,5.008,5.008,0,0,0-5.008-5.008m6.376-.2a1.17,1.17,0,1,1-1.17-1.17,1.17,1.17,0,0,1,1.17,1.17" transform="translate(-158.663 -112.909)" fill="#fff" />
		</g>
	</g>
</svg>
