<svg id="Group_10447" data-name="Group 10447" xmlns="http://www.w3.org/2000/svg" width="70.02" height="66.922" viewBox="0 0 70.02 66.922">
	<g id="Group_1680" data-name="Group 1680" transform="translate(0 0)">
		<g id="Group_1679" data-name="Group 1679" transform="translate(0 0)">
			<path id="Path_402" data-name="Path 402" d="M-111.917-39.957V-54.589c.1.093.189.167.27.248q4.181,4.153,8.358,8.311a.81.81,0,0,0,.625.263q12.911-.01,25.821-.005h.419V-71.379H-90.752a2.56,2.56,0,0,0-.031.286q0,2.981,0,5.961c0,.206.017.343.285.341,1.113-.011,2.225,0,3.338-.007a2.092,2.092,0,0,0,.233-.03v-2.818h6.676c0,.331,0,.647,0,.963-.019,1.6-.025,3.2-.069,4.8a5.326,5.326,0,0,1-.221,1.3,3.2,3.2,0,0,1-2.888,2.326,10.6,10.6,0,0,1-1.559.117q-6.455.014-12.911.005h-.375V-72.486h-.437c-2.5,0-5,.02-7.494-.015a8.886,8.886,0,0,1-2.15-.288,4.472,4.472,0,0,1-3.409-3.866,9.916,9.916,0,0,1-.141-1.692q-.012-14.069-.006-28.138v-.389H-41.9v.394q0,12.246,0,24.493a.726.726,0,0,1-.229.568c-.71.7-1.4,1.424-2.113,2.126a.647.647,0,0,1-.405.182q-5.212.014-10.424.006c-.022,0-.045-.006-.14-.019.113-.119.2-.211.285-.3q3-2.97,6.012-5.935a.832.832,0,0,0,.272-.654q-.014-4.054,0-8.107a.8.8,0,0,0-.26-.625q-2.67-2.653-5.323-5.323a.8.8,0,0,0-.622-.267q-21.529.009-43.058,0a.814.814,0,0,0-.624.267c-1.806,1.791-3.62,3.574-5.423,5.368a.732.732,0,0,0-.211.461q-.016,7.358-.008,14.716c0,.079.01.157.017.266h5.666V-91.6h.4q6.012,0,12.025,0a7.18,7.18,0,0,1,3.75.934,3.852,3.852,0,0,1,2.07,3.608c-.034,1.5-.007,3-.007,4.5v.39h-6.661c0-.725,0-1.437,0-2.149s.1-.613-.611-.616c-.976,0-1.953,0-2.93,0-.187,0-.331.005-.33.26.007,1.783.005,3.565.008,5.348a1.219,1.219,0,0,0,.037.183h.459c8.176,0,16.352-.045,24.527.022a12.7,12.7,0,0,1,8.563,3.171,9.526,9.526,0,0,1,3.326,8.649,8.112,8.112,0,0,1-1.969,4.685A8.342,8.342,0,0,1-58.1-60.9a1.422,1.422,0,0,0-.273.262,1.4,1.4,0,0,0,.314.252,10.165,10.165,0,0,1,4.628,3.453,9.961,9.961,0,0,1,1.66,4.307A11.057,11.057,0,0,1-60.7-40.183a17.9,17.9,0,0,1-2.64.217q-24.05.019-48.1.009Zm42.195-16.179V-45.68c.139.008.261.021.382.021q2.434,0,4.868,0a5.47,5.47,0,0,0,5.049-3.407,5.078,5.078,0,0,0-4.757-7.069h-5.542Zm0-15.4c-.011.133-.024.211-.024.288,0,2.655,0,5.31-.007,7.966,0,.27.106.319.342.317,1.316-.008,2.633,0,3.949-.005a5.737,5.737,0,0,0,4.071-1.692,3.607,3.607,0,0,0-.271-5.639,5.942,5.942,0,0,0-3.507-1.223c-1.405-.05-2.814-.011-4.221-.011Z" transform="translate(111.917 106.873)" fill="#31353f" />
			<path id="Path_403" data-name="Path 403" d="M739.125,482.882a1.992,1.992,0,0,0,.308-.207c1.564-1.535,3.12-3.078,4.689-4.608a.906.906,0,0,0,.3-.713q-.011-11.258-.005-22.517c0-.5,0-.5.494-.5,1.93,0,3.861.007,5.791-.007.3,0,.383.08.383.382q-.011,13.966,0,27.933c0,.277-.073.371-.36.37q-5.638-.013-11.276-.006c-.078,0-.157-.009-.235-.014Z" transform="translate(-681.141 -416.097)" fill="#31353f" />
			<path id="Path_404" data-name="Path 404" d="M822.1,340.337a3.327,3.327,0,1,1-3.327-3.325A3.328,3.328,0,0,1,822.1,340.337Z" transform="translate(-752.264 -306.769)" fill="#31353f" />
		</g>
	</g>
</svg>
