<svg id="Group_12667" data-name="Group 12667" xmlns="http://www.w3.org/2000/svg" width="63.301" height="60.5" viewBox="0 0 63.301 60.5">
	<g id="Group_12666" data-name="Group 12666" transform="translate(0 0)">
		<g id="Group_10447" data-name="Group 10447" transform="translate(0 0)">
			<g id="Group_1680" data-name="Group 1680" transform="translate(0 0)">
				<g id="Group_1679" data-name="Group 1679" transform="translate(0 0)">
					<path id="Path_402" data-name="Path 402" d="M-111.917-46.378V-59.607c.092.084.171.151.244.224q3.78,3.755,7.556,7.513a.733.733,0,0,0,.565.238q11.672-.009,23.343,0h.379V-74.785H-92.783a2.317,2.317,0,0,0-.028.259q0,2.695,0,5.389c0,.186.015.31.258.308,1.006-.01,2.012,0,3.018-.006a1.891,1.891,0,0,0,.211-.027v-2.547h6.035c0,.3,0,.585,0,.871-.017,1.447-.023,2.894-.062,4.34a4.815,4.815,0,0,1-.2,1.179,2.889,2.889,0,0,1-2.611,2.1,9.583,9.583,0,0,1-1.41.106q-5.836.012-11.672,0h-.339v-12.98h-.4c-2.258,0-4.517.018-6.775-.013a8.034,8.034,0,0,1-1.943-.26,4.043,4.043,0,0,1-3.081-3.495,8.965,8.965,0,0,1-.127-1.53q-.011-12.719-.005-25.437v-.352H-48.62v.356q0,11.071,0,22.142a.656.656,0,0,1-.207.513c-.642.636-1.268,1.288-1.91,1.922a.585.585,0,0,1-.367.164q-4.712.013-9.424.006c-.02,0-.041-.005-.126-.017.1-.107.177-.191.257-.27q2.715-2.685,5.435-5.365a.752.752,0,0,0,.246-.592q-.012-3.665,0-7.329a.726.726,0,0,0-.235-.565q-2.414-2.4-4.812-4.813a.727.727,0,0,0-.562-.241q-19.463.008-38.926,0a.736.736,0,0,0-.564.241c-1.632,1.62-3.273,3.231-4.9,4.853a.662.662,0,0,0-.191.417q-.015,6.652-.008,13.3c0,.071.009.142.015.24h5.122V-93.066h.358q5.435,0,10.871,0a6.491,6.491,0,0,1,3.39.844,3.482,3.482,0,0,1,1.872,3.262c-.031,1.354-.007,2.71-.007,4.065v.352h-6.022c0-.656,0-1.3,0-1.942s.092-.554-.553-.557c-.883,0-1.766,0-2.648,0-.169,0-.3,0-.3.235.007,1.612,0,3.223.007,4.835a1.1,1.1,0,0,0,.033.165h.415c7.391,0,14.782-.04,22.173.02a11.477,11.477,0,0,1,7.741,2.866A8.612,8.612,0,0,1-59.438-71.1a7.333,7.333,0,0,1-1.78,4.235,7.541,7.541,0,0,1-2.046,1.56,1.286,1.286,0,0,0-.247.236,1.261,1.261,0,0,0,.284.228,9.19,9.19,0,0,1,4.184,3.122,9.006,9.006,0,0,1,1.5,3.894,10,10,0,0,1-8.076,11.244,16.177,16.177,0,0,1-2.387.2q-21.742.017-43.485.008ZM-73.772-61v9.452c.126.007.236.019.346.019q2.2,0,4.4,0a4.945,4.945,0,0,0,4.565-3.08A4.591,4.591,0,0,0-68.761-61h-5.011Zm0-13.919c-.01.12-.021.19-.021.261,0,2.4,0,4.8-.006,7.2,0,.244.1.288.309.287,1.19-.007,2.38,0,3.57,0a5.187,5.187,0,0,0,3.68-1.53,3.261,3.261,0,0,0-.245-5.1,5.372,5.372,0,0,0-3.171-1.106c-1.27-.045-2.544-.01-3.816-.01Z" transform="translate(111.917 106.873)" fill="#fff" />
					<path id="Path_403" data-name="Path 403" d="M739.125,480.142a1.8,1.8,0,0,0,.278-.187c1.414-1.388,2.821-2.783,4.239-4.166a.819.819,0,0,0,.268-.644q-.01-10.178,0-20.356c0-.449,0-.449.447-.449,1.745,0,3.49.006,5.235-.006.271,0,.347.073.346.345q-.01,12.626,0,25.253c0,.251-.065.336-.326.335q-5.1-.011-10.194-.006c-.071,0-.142-.008-.212-.013Z" transform="translate(-686.706 -419.766)" fill="#fff" />
					<path id="Path_404" data-name="Path 404" d="M821.464,340.018a3.008,3.008,0,1,1-3.008-3.006A3.008,3.008,0,0,1,821.464,340.018Z" transform="translate(-758.328 -309.671)" fill="#fff" />
				</g>
			</g>
		</g>
	</g>
</svg>
