<svg xmlns="http://www.w3.org/2000/svg" width="32" height="32" viewBox="0 0 32 32">
	<g id="Group_10780" data-name="Group 10780" transform="translate(-215 -586)">
		<g id="Group_10778" data-name="Group 10778" transform="translate(215 586)">
			<g id="Rectangle_1624" data-name="Rectangle 1624" transform="translate(0)" fill="#b2b2b2" stroke="#707070" stroke-width="1" opacity="0">
				<rect width="32" height="32" stroke="none" />
				<rect x="0.5" y="0.5" width="31" height="31" fill="none" />
			</g>
			<g id="Group_10447" data-name="Group 10447" transform="translate(0 1.036)">
				<g id="Group_1680" data-name="Group 1680" transform="translate(0 0)">
					<g id="Group_1679" data-name="Group 1679" transform="translate(0 0)">
						<path id="Path_402" data-name="Path 402" d="M-111.917-76.292v-6.687c.046.042.086.076.124.113q1.911,1.9,3.82,3.8a.37.37,0,0,0,.286.12q5.9,0,11.8,0h.191v-11.7h-6.548a1.17,1.17,0,0,0-.014.131q0,1.362,0,2.724c0,.094.008.157.13.156.509-.005,1.017,0,1.526,0a.959.959,0,0,0,.107-.014v-1.288h3.051c0,.151,0,.3,0,.44-.009.731-.011,1.463-.032,2.194a2.434,2.434,0,0,1-.1.6,1.46,1.46,0,0,1-1.32,1.063,4.851,4.851,0,0,1-.713.054q-2.95.006-5.9,0h-.171v-6.562h-.2c-1.142,0-2.283.009-3.425-.007a4.062,4.062,0,0,1-.982-.132,2.044,2.044,0,0,1-1.558-1.767,4.528,4.528,0,0,1-.064-.773q-.006-6.43,0-12.859v-.178h32v.18q0,5.6,0,11.193a.332.332,0,0,1-.1.259c-.324.321-.641.651-.966.972a.3.3,0,0,1-.185.083q-2.382.007-4.764,0c-.01,0-.021,0-.064-.009.052-.054.09-.1.13-.137q1.373-1.357,2.748-2.712a.38.38,0,0,0,.124-.3q-.006-1.853,0-3.705a.367.367,0,0,0-.119-.286q-1.22-1.213-2.433-2.433a.368.368,0,0,0-.284-.122q-9.839,0-19.678,0a.372.372,0,0,0-.285.122c-.825.819-1.655,1.633-2.478,2.453a.335.335,0,0,0-.1.211q-.008,3.363,0,6.725c0,.036,0,.072.008.122h2.589v-5.641h.181q2.748,0,5.5,0a3.281,3.281,0,0,1,1.714.427,1.76,1.76,0,0,1,.946,1.649c-.016.685,0,1.37,0,2.055v.178h-3.044c0-.331,0-.657,0-.982s.047-.28-.279-.282c-.446,0-.893,0-1.339,0-.085,0-.151,0-.151.119,0,.815,0,1.629,0,2.444a.552.552,0,0,0,.017.084h.21c3.736,0,7.473-.02,11.209.01a5.8,5.8,0,0,1,3.913,1.449,4.354,4.354,0,0,1,1.52,3.953,3.707,3.707,0,0,1-.9,2.141,3.812,3.812,0,0,1-1.034.789.651.651,0,0,0-.125.12.637.637,0,0,0,.144.115,4.645,4.645,0,0,1,2.115,1.578,4.553,4.553,0,0,1,.759,1.969,5.053,5.053,0,0,1-4.083,5.684,8.177,8.177,0,0,1-1.207.1q-10.991.009-21.982,0Zm19.283-7.394v4.778c.064,0,.119.009.175.009q1.112,0,2.225,0a2.5,2.5,0,0,0,2.308-1.557A2.321,2.321,0,0,0-90.1-83.685h-2.533Zm0-7.036c-.005.061-.011.1-.011.132,0,1.213,0,2.427,0,3.64,0,.124.049.146.156.145.6,0,1.2,0,1.8,0a2.622,2.622,0,0,0,1.86-.773,1.648,1.648,0,0,0-.124-2.577,2.716,2.716,0,0,0-1.6-.559c-.642-.023-1.286-.005-1.929-.005Z" transform="translate(111.917 106.873)" fill="#b2b2b2" />
						<path id="Path_403" data-name="Path 403" d="M739.125,467.38a.928.928,0,0,0,.141-.094c.715-.7,1.426-1.407,2.143-2.106a.413.413,0,0,0,.135-.326q0-5.145,0-10.291c0-.227,0-.227.226-.227.882,0,1.764,0,2.646,0,.137,0,.175.037.175.175q-.005,6.383,0,12.766c0,.127-.033.17-.165.169q-2.577-.006-5.153,0c-.036,0-.072,0-.107-.006Z" transform="translate(-712.626 -436.859)" fill="#b2b2b2" />
						<path id="Path_404" data-name="Path 404" d="M818.489,338.532a1.521,1.521,0,1,1-1.52-1.52A1.521,1.521,0,0,1,818.489,338.532Z" transform="translate(-786.572 -323.191)" fill="#b2b2b2" />
					</g>
				</g>
			</g>
		</g>
	</g>
</svg>
