<svg xmlns="http://www.w3.org/2000/svg" width="24" height="24" viewBox="0 0 24 24">
	<g id="Group_12661" data-name="Group 12661" transform="translate(-1344 -5269)">
		<rect id="Rectangle_1833" data-name="Rectangle 1833" width="24" height="24" transform="translate(1344 5269)" fill="#fff" opacity="0" />
		<g id="Group_210" data-name="Group 210" transform="translate(-2557.355 4003.945)">
			<g id="Group_209" data-name="Group 209" transform="translate(3902.932 1268.874)">
				<g id="Group_208" data-name="Group 208">
					<path id="Path_215" data-name="Path 215" d="M3909.256,1282.153a4.3,4.3,0,0,1-3.987-2.974,4.234,4.234,0,0,0,1.836-.055.335.335,0,0,0,.062-.027,4.286,4.286,0,0,1-2.783-1.966,4.158,4.158,0,0,1-.627-2.279,4.221,4.221,0,0,0,1.906.52,4.3,4.3,0,0,1-1.763-2.6,4.246,4.246,0,0,1,.459-3.1,12.259,12.259,0,0,0,8.837,4.478c-.024-.17-.051-.319-.069-.469a4.284,4.284,0,0,1,7.283-3.545.215.215,0,0,0,.228.068,8.618,8.618,0,0,0,2.493-.958.6.6,0,0,1,.056-.03.209.209,0,0,1,.029,0,4.386,4.386,0,0,1-1.835,2.332,8.242,8.242,0,0,0,2.386-.642l.011.013c-.158.221-.316.44-.487.649a8.407,8.407,0,0,1-1.557,1.48.141.141,0,0,0-.071.134,11.968,11.968,0,0,1-.08,1.9,12.627,12.627,0,0,1-1.1,3.815,12.358,12.358,0,0,1-2.316,3.378,11.456,11.456,0,0,1-5.888,3.28,12.762,12.762,0,0,1-2.387.284,12.09,12.09,0,0,1-6.855-1.84c-.027-.015-.054-.035-.1-.066a8.658,8.658,0,0,0,4.287-.591A8.475,8.475,0,0,0,3909.256,1282.153Z" transform="translate(-3902.932 -1268.874)" fill="#fff" fill-rule="evenodd" />
				</g>
			</g>
		</g>
	</g>
</svg>
