<svg xmlns="http://www.w3.org/2000/svg" width="24" height="24" viewBox="0 0 24 24">
	<g id="Group_12671" data-name="Group 12671" transform="translate(-8639 -10037)">
		<g id="Group_12670" data-name="Group 12670" transform="translate(-149 13)">
			<g id="Group_12670-2" data-name="Group 12670">
				<rect id="Rectangle_1836" data-name="Rectangle 1836" width="24" height="24" transform="translate(8788 10024)" fill="#fff" opacity="0" />
				<g id="YouTube-Logo.wine" transform="translate(8788.271 10027.288)">
					<g id="g7433" transform="translate(-0.003 -0.002)">
						<path id="Subtraction_30" data-name="Subtraction 30" d="M11.869,16.613c-.076,0-7.43-.006-9.289-.5A2.975,2.975,0,0,1,.492,14.014,31.039,31.039,0,0,1,0,8.31,31.284,31.284,0,0,1,.492,2.6,3.032,3.032,0,0,1,2.58.492C4.422,0,11.794,0,11.869,0s7.441.006,9.283.511A2.974,2.974,0,0,1,23.245,2.6a30.309,30.309,0,0,1,.488,5.728,31.4,31.4,0,0,1-.488,5.708,2.982,2.982,0,0,1-2.093,2.093C19.319,16.609,11.943,16.613,11.869,16.613ZM9.5,4.748v7.115L15.684,8.31,9.5,4.75Z" transform="translate(0)" fill="#fff" />
					</g>
				</g>
			</g>
		</g>
	</g>
</svg>
