<svg xmlns="http://www.w3.org/2000/svg" xmlns:xlink="http://www.w3.org/1999/xlink" width="100" height="100" viewBox="0 0 100 100">
	<defs>
		<clipPath id="clip-path">
			<rect id="Rectangle_1710" data-name="Rectangle 1710" width="83.408" height="76.778" fill="none" stroke="#b2b2b2" stroke-width="2.5" />
		</clipPath>
	</defs>
	<g id="Group_11621" data-name="Group 11621" transform="translate(-1008 -1566)">
		<g id="Group_11626" data-name="Group 11626">
			<g id="Group_1714" data-name="Group 1714" opacity="0.003">
				<rect id="Rectangle_1714" data-name="Rectangle 1714" width="100" height="100" transform="translate(1008 1566)" fill="#fff" />
				<path id="Rectangle_1714_-_Outline" data-name="Rectangle 1714 - Outline" d="M1,1V99H99V1H1M0,0H100V100H0Z" transform="translate(1008 1566)" fill="#707070" />
			</g>
			<g id="Group_11618" data-name="Group 11618" transform="translate(1016.296 1581.46)">
				<g id="Group_11617" data-name="Group 11617" transform="translate(0 0.001)" clip-path="url(#clip-path)">
					<path id="Path_10444" data-name="Path 10444" d="M72.874,27.128a1.25,1.25,0,0,1,1.134.725L81.7,44.45a1.25,1.25,0,0,1-.668,1.685L73.341,49.23,49.6,58.774a1.25,1.25,0,0,1-1.555-.546L38.6,41.5a1.25,1.25,0,0,1,.646-1.788l33.184-12.5A1.247,1.247,0,0,1,72.874,27.128Zm6,17.179-6.65-14.35L41.5,41.538l8.186,14.507Z" transform="translate(2.156 1.541)" fill="#b2b2b2" />
					<path id="Path_10445" data-name="Path 10445" d="M39.783,39.125a1.25,1.25,0,0,1,1.09.636l8.821,15.633,22.726-9.136a1.25,1.25,0,0,1,1.716,1.16V60.911a1.25,1.25,0,0,1-.79,1.162l-32.8,12.988a1.25,1.25,0,0,1-1.71-1.148l-.376-32.458a1.25,1.25,0,0,1-.032-1.347l.207-.341a1.25,1.25,0,0,1,.5-.464l.082-.042A1.245,1.245,0,0,1,39.783,39.125Zm9.361,19.088a1.25,1.25,0,0,1-1.089-.636L41,45.075l.313,26.994L71.635,60.062V49.268L49.609,58.123A1.247,1.247,0,0,1,49.143,58.213Z" transform="translate(2.146 2.193)" fill="#b2b2b2" />
					<path id="Path_10446" data-name="Path 10446" d="M41.2,39.488a1.244,1.244,0,0,1,.635.174l.207.122a1.25,1.25,0,0,1,.613,1.061l.382,33.019a1.25,1.25,0,0,1-1.7,1.18L7.756,62.057a1.25,1.25,0,0,1-.8-1.166V47.532a1.25,1.25,0,0,1,1.719-1.159l22.266,9.01,9.181-15.289A1.249,1.249,0,0,1,41.2,39.488Zm-.684,32.56L40.2,44.827,32.535,57.587a1.25,1.25,0,0,1-1.541.515L9.457,49.386V60.035Z" transform="translate(0.446 2.213)" fill="#b2b2b2" />
					<path id="Path_10447" data-name="Path 10447" d="M8.618,27.128a1.247,1.247,0,0,1,.446.083L42.258,39.9a1.25,1.25,0,0,1,.621,1.818l-.2.336-9.73,16.2a1.25,1.25,0,0,1-1.54.515L8.149,49.363.181,46.134a1.25,1.25,0,0,1-.657-1.7l7.968-16.6A1.25,1.25,0,0,1,8.618,27.128ZM39.97,41.7,9.246,29.957,2.353,44.317l6.734,2.729,22.265,9.009Z" transform="translate(0.035 1.541)" fill="#b2b2b2" />
					<path id="Path_10448" data-name="Path 10448" d="M41.784,74.787a1.25,1.25,0,0,1-.451-.084L7.756,61.714a1.25,1.25,0,0,1-.8-1.166V47.189a1.25,1.25,0,0,1,2.5,0v12.5l32.322,12.5L73.335,59.7V47.055a1.25,1.25,0,0,1,2.5,0V60.548a1.25,1.25,0,0,1-.79,1.162L42.244,74.7A1.25,1.25,0,0,1,41.784,74.787Z" transform="translate(0.446 2.556)" fill="#b2b2b2" />
					<path id="Path_10449" data-name="Path 10449" d="M8.618,27.128a1.247,1.247,0,0,1,.446.083L42.258,39.9a1.25,1.25,0,0,1,.621,1.818l-.2.336-9.729,16.2a1.25,1.25,0,0,1-1.54.515L8.148,49.363.18,46.134a1.25,1.25,0,0,1-.657-1.7l7.968-16.6A1.25,1.25,0,0,1,8.618,27.128ZM39.97,41.7,9.246,29.957,2.353,44.317l6.734,2.729,22.266,9.009Z" transform="translate(0.035 1.541)" fill="#b2b2b2" />
					<path id="Path_10450" data-name="Path 10450" d="M72.874,27.128a1.25,1.25,0,0,1,1.134.725L81.7,44.45a1.25,1.25,0,0,1-.668,1.685L73.341,49.23,49.6,58.774a1.25,1.25,0,0,1-1.555-.546L38.6,41.5a1.25,1.25,0,0,1,.646-1.788l33.184-12.5A1.247,1.247,0,0,1,72.874,27.128Zm6,17.179-6.65-14.35L41.5,41.538l8.186,14.507Z" transform="translate(2.156 1.541)" fill="#b2b2b2" />
					<path id="Line_294" data-name="Line 294" d="M.381,34.269a1.25,1.25,0,0,1-1.25-1.236L-1.25.014A1.25,1.25,0,0,1-.014-1.25,1.25,1.25,0,0,1,1.25-.014L1.632,33A1.25,1.25,0,0,1,.4,34.269Z" transform="translate(41.847 43.073)" fill="#b2b2b2" />
					<path id="Path_10451" data-name="Path 10451" d="M8.617,31.136a1.25,1.25,0,0,1-1.127-.709L-.476,13.84a1.25,1.25,0,0,1,.657-1.7L31.4-.509a1.25,1.25,0,0,1,.939,2.317L2.353,13.957,9.237,28.289l20.7-8.325a1.25,1.25,0,0,1,.933,2.319L9.083,31.045A1.247,1.247,0,0,1,8.617,31.136Z" transform="translate(0.035 0.035)" fill="#b2b2b2" />
					<path id="Path_10452" data-name="Path 10452" d="M72.413,31.136a1.247,1.247,0,0,1-.455-.086L47.734,21.576a1.25,1.25,0,0,1,.911-2.328l23.129,9.045,6.642-14.326L48.2,1.81A1.25,1.25,0,0,1,49.138-.51L80.57,12.139a1.25,1.25,0,0,1,.667,1.685l-7.69,16.587A1.25,1.25,0,0,1,72.413,31.136Z" transform="translate(2.618 0.035)" fill="#b2b2b2" />
				</g>
			</g>
		</g>
	</g>
</svg>
