<svg xmlns="http://www.w3.org/2000/svg" width="24" height="24" viewBox="0 0 24 24">
	<g id="Group_3839" data-name="Group 3839" transform="translate(-266 -1056)">
		<g id="Rectangle_693" data-name="Rectangle 693" transform="translate(266 1056)" fill="#fff" stroke="#707070" stroke-width="1.5" opacity="0">
			<rect width="24" height="24" stroke="none" />
			<rect x="0.75" y="0.75" width="22.5" height="22.5" fill="none" />
		</g>
		<path id="message-circle" d="M21,11.5a8.38,8.38,0,0,1-.9,3.8A8.5,8.5,0,0,1,12.5,20a8.38,8.38,0,0,1-3.8-.9L3,21l1.9-5.7A8.38,8.38,0,0,1,4,11.5,8.5,8.5,0,0,1,8.7,3.9,8.38,8.38,0,0,1,12.5,3H13a8.48,8.48,0,0,1,8,8Z" transform="translate(265.5 1055.5)" fill="none" stroke="#31353f" stroke-linecap="round" stroke-linejoin="round" stroke-width="1.5" />
	</g>
</svg>
