<svg xmlns="http://www.w3.org/2000/svg" width="100" height="100" viewBox="0 0 100 100">
	<g id="Group_11622" data-name="Group 11622" transform="translate(-1385 -1566)">
		<g id="Group_1715" data-name="Group 1715" opacity="0">
			<rect id="Rectangle_1715" data-name="Rectangle 1715" width="100" height="100" transform="translate(1385 1566)" fill="#fff" />
			<path id="Rectangle_1715_-_Outline" data-name="Rectangle 1715 - Outline" d="M1,1V99H99V1H1M0,0H100V100H0Z" transform="translate(1385 1566)" fill="#707070" />
		</g>
		<g id="Group_11624" data-name="Group 11624">
			<g id="Group_11622-2" data-name="Group 11622" transform="translate(1402.015 1571.754)">
				<g id="Group_11623" data-name="Group 11623">
					<path id="Path_10465" data-name="Path 10465" d="M32.981,81.866A32.963,32.963,0,1,1,65.97,48.907,33.007,33.007,0,0,1,32.981,81.866m0-64.411A31.449,31.449,0,1,0,64.456,48.907,31.495,31.495,0,0,0,32.981,17.455" fill="#b2b2b2" />
					<path id="Path_10465_-_Outline" data-name="Path 10465 - Outline" d="M32.981,82.366A33.463,33.463,0,1,1,66.47,48.907,33.508,33.508,0,0,1,32.981,82.366Zm0-65.925A32.463,32.463,0,1,0,65.47,48.907,32.51,32.51,0,0,0,32.981,16.441Zm0,64.411A31.949,31.949,0,1,1,64.956,48.907,31.992,31.992,0,0,1,32.981,80.852Zm0-62.9A30.949,30.949,0,1,0,63.956,48.907,30.995,30.995,0,0,0,32.981,17.955Z" fill="#b2b2b2" />
					<path id="Path_10467" data-name="Path 10467" d="M32.981,13.116a6.558,6.558,0,1,1,6.566-6.562,6.571,6.571,0,0,1-6.566,6.562m0-11.6a5.044,5.044,0,1,0,5.052,5.04,5.052,5.052,0,0,0-5.052-5.04" fill="#b2b2b2" />
					<path id="Path_10467_-_Outline" data-name="Path 10467 - Outline" d="M32.981,13.616a7.058,7.058,0,1,1,7.066-7.062A7.072,7.072,0,0,1,32.981,13.616ZM32.981.5a6.058,6.058,0,1,0,6.066,6.054A6.067,6.067,0,0,0,32.981.5Zm0,11.6a5.544,5.544,0,1,1,5.552-5.548A5.556,5.556,0,0,1,32.981,12.1Zm0-10.088a4.544,4.544,0,1,0,4.552,4.54A4.551,4.551,0,0,0,32.981,2.014Z" fill="#b2b2b2" />
					<path id="Path_10469" data-name="Path 10469" d="M32.981,22.991a.757.757,0,0,1-.757-.757V16.7a.757.757,0,0,1,1.514,0v5.529a.757.757,0,0,1-.757.757" fill="#b2b2b2" />
					<path id="Path_10469_-_Outline" data-name="Path 10469 - Outline" d="M32.981,23.491a1.258,1.258,0,0,1-1.257-1.257V16.7a1.257,1.257,0,0,1,2.514,0v5.529A1.258,1.258,0,0,1,32.981,23.491Zm0-7.042a.257.257,0,0,0-.257.256v5.529a.257.257,0,0,0,.514,0V16.7A.257.257,0,0,0,32.981,16.449Z" fill="#b2b2b2" />
					<path id="Path_10470" data-name="Path 10470" d="M51.859,30.8a.758.758,0,0,1-.534-1.293l3.91-3.907A.757.757,0,1,1,56.3,26.67L52.4,30.577a.756.756,0,0,1-.536.222" fill="#b2b2b2" />
					<path id="Path_10470_-_Outline" data-name="Path 10470 - Outline" d="M51.859,31.3a1.257,1.257,0,0,1-.888-2.147l3.91-3.907a1.257,1.257,0,1,1,1.775,1.779l-3.909,3.906A1.25,1.25,0,0,1,51.859,31.3Zm3.91-5.422a.252.252,0,0,0-.179.074L51.678,29.86a.257.257,0,0,0-.076.183.259.259,0,0,0,.257.256.256.256,0,0,0,.182-.076l3.909-3.907a.257.257,0,0,0-.182-.439Z" fill="#b2b2b2" />
					<path id="Path_10471" data-name="Path 10471" d="M65.205,49.663H59.673a.757.757,0,0,1,0-1.514h5.532a.757.757,0,0,1,0,1.514" fill="#b2b2b2" />
					<path id="Path_10471_-_Outline" data-name="Path 10471 - Outline" d="M65.205,50.163H59.673a1.257,1.257,0,0,1,0-2.514h5.532a1.257,1.257,0,0,1,0,2.514Zm-5.532-1.514a.257.257,0,0,0,0,.514h5.532a.257.257,0,0,0,0-.514Z" fill="#b2b2b2" />
					<path id="Path_10472" data-name="Path 10472" d="M55.77,72.429a.757.757,0,0,1-.536-.222L51.325,68.3a.757.757,0,1,1,1.069-1.071l3.91,3.907a.757.757,0,0,1-.534,1.293" fill="#b2b2b2" />
					<path id="Path_10472_-_Outline" data-name="Path 10472 - Outline" d="M55.77,72.929a1.25,1.25,0,0,1-.89-.368l-3.909-3.907a1.257,1.257,0,1,1,1.776-1.778l3.91,3.907a1.257,1.257,0,0,1-.887,2.147Zm-3.911-5.421a.256.256,0,0,0-.181.438l3.91,3.908a.257.257,0,0,0,.183.076.253.253,0,0,0,.18-.074.256.256,0,0,0,0-.365l-3.91-3.907A.255.255,0,0,0,51.859,67.508Z" fill="#b2b2b2" />
					<path id="Path_10473" data-name="Path 10473" d="M32.981,81.865a.757.757,0,0,1-.757-.757V75.579a.757.757,0,0,1,1.514,0v5.529a.757.757,0,0,1-.757.757" fill="#b2b2b2" />
					<path id="Path_10473_-_Outline" data-name="Path 10473 - Outline" d="M32.981,82.365a1.258,1.258,0,0,1-1.257-1.257V75.579a1.257,1.257,0,0,1,2.514,0v5.529A1.258,1.258,0,0,1,32.981,82.365Zm0-7.042a.257.257,0,0,0-.257.256v5.529a.257.257,0,0,0,.514,0V75.579A.257.257,0,0,0,32.981,75.323Z" fill="#b2b2b2" />
					<path id="Path_10474" data-name="Path 10474" d="M10.2,72.429a.758.758,0,0,1-.535-1.293l3.91-3.907a.757.757,0,0,1,1.07,1.071l-3.909,3.907a.757.757,0,0,1-.536.222" fill="#b2b2b2" />
					<path id="Path_10474_-_Outline" data-name="Path 10474 - Outline" d="M10.2,72.929a1.245,1.245,0,0,1-.89-.37,1.258,1.258,0,0,1,0-1.777l3.91-3.907A1.257,1.257,0,1,1,15,68.654l-3.909,3.906A1.25,1.25,0,0,1,10.2,72.929Zm3.91-5.421a.257.257,0,0,0-.182.075l-3.91,3.907a.258.258,0,0,0,0,.364.254.254,0,0,0,.181.076.257.257,0,0,0,.182-.076l3.909-3.907a.258.258,0,0,0,0-.364A.254.254,0,0,0,14.11,67.508Z" fill="#b2b2b2" />
					<path id="Path_10475" data-name="Path 10475" d="M6.289,49.663H.761a.757.757,0,1,1,0-1.514H6.289a.757.757,0,1,1,0,1.514" fill="#b2b2b2" />
					<path id="Path_10475_-_Outline" data-name="Path 10475 - Outline" d="M6.289,50.163H.761a1.257,1.257,0,1,1,0-2.514H6.289a1.257,1.257,0,1,1,0,2.514ZM.761,48.649a.257.257,0,1,0,0,.514H6.289a.257.257,0,1,0,0-.514Z" fill="#b2b2b2" />
					<path id="Path_10476" data-name="Path 10476" d="M14.111,30.8a.754.754,0,0,1-.536-.222L9.665,26.67a.757.757,0,0,1,1.07-1.071l3.91,3.907a.757.757,0,0,1,0,1.07.75.75,0,0,1-.534.223" fill="#b2b2b2" />
					<path id="Path_10476_-_Outline" data-name="Path 10476 - Outline" d="M14.111,31.3a1.25,1.25,0,0,1-.89-.368l-3.91-3.907a1.257,1.257,0,0,1,1.776-1.779L15,29.152a1.259,1.259,0,0,1,0,1.777A1.243,1.243,0,0,1,14.111,31.3ZM10.2,25.878a.257.257,0,0,0-.182.438l3.91,3.907a.254.254,0,0,0,.362,0,.258.258,0,0,0,0-.365l-3.909-3.906A.256.256,0,0,0,10.2,25.878Z" fill="#b2b2b2" />
					<path id="Path_10477" data-name="Path 10477" d="M32.981,17.455a.757.757,0,0,1-.757-.756v-4.34a.757.757,0,0,1,1.514,0V16.7a.757.757,0,0,1-.757.756" fill="#b2b2b2" />
					<path id="Path_10477_-_Outline" data-name="Path 10477 - Outline" d="M32.981,17.955A1.258,1.258,0,0,1,31.724,16.7v-4.34a1.257,1.257,0,0,1,2.514,0V16.7A1.258,1.258,0,0,1,32.981,17.955Zm0-5.853a.257.257,0,0,0-.257.257V16.7a.257.257,0,0,0,.514,0v-4.34A.257.257,0,0,0,32.981,12.1Z" fill="#b2b2b2" />
				</g>
			</g>
			<path id="Path_10478" data-name="Path 10478" d="M-1509.429,5317.785a1.4,1.4,0,0,1-.934-.357l-15.037-13.47v-22.126a1.4,1.4,0,0,1,1.4-1.4,1.4,1.4,0,0,1,1.4,1.4v20.875l14.105,12.635a1.4,1.4,0,0,1,.109,1.977A1.4,1.4,0,0,1-1509.429,5317.785Z" transform="translate(2959 -3681)" fill="#b2b2b2" />
		</g>
	</g>
</svg>
