<?xml version="1.0" encoding="utf-8"?>
<!-- Generator: Adobe Illustrator 23.0.1, SVG Export Plug-In . SVG Version: 6.00 Build 0)  -->
<svg version="1.1" id="Layer_1" xmlns="http://www.w3.org/2000/svg" xmlns:xlink="http://www.w3.org/1999/xlink" x="0px" y="0px"
	 viewBox="0 0 32 31.6" style="enable-background:new 0 0 32 31.6;" xml:space="preserve">
<style type="text/css">
	.st0{fill:#FFFFFF;}
	.st1{fill:#4CAF50;}
	.st2{fill:#1E88E5;}
	.st3{fill:#E53935;}
	.st4{fill:#C62828;}
	.st5{fill:#FBC02D;}
</style>
<g id="Group_11533-2">
	<g transform="matrix(1, 0, 0, 1, -9, -9)">
		<circle id="Ellipse_522-2" class="st0" cx="25" cy="24.7" r="16"/>
	</g>
</g>
<g id="icons8-gmail" transform="translate(5.896 8.302)">
	<path id="Path_10413" class="st1" d="M21,3.3l-2.6,1.4l-2.6,2.5v8.4h3.6c0.9,0,1.6-0.7,1.6-1.6c0,0,0,0,0,0V3.3z"/>
	<path id="Path_10414" class="st2" d="M-0.8,3.3l1.9,0.9l3.3,3v8.4H0.8c-0.9,0-1.6-0.7-1.6-1.6c0,0,0,0,0,0V3.3z"/>
	<path id="Path_10415" class="st3" d="M15.8,0.7L10.1,5L4.4,0.7l-0.5,3l0.5,3.5l5.7,4.3l5.7-4.3l0.5-3.5L15.8,0.7z"/>
	<path id="Path_10416" class="st4" d="M-0.8,1.3v2l5.2,3.9V0.7L2.8-0.5C2.4-0.8,1.9-0.9,1.5-0.9l0,0C0.2-0.9-0.8,0.1-0.8,1.3z"/>
	<path id="Path_10417" class="st5" d="M21,1.3v2l-5.2,3.9V0.7l1.6-1.2c0.4-0.3,0.9-0.4,1.3-0.4l0,0C20-0.9,21,0.1,21,1.3
		C21,1.3,21,1.3,21,1.3z"/>
</g>
</svg>
