<svg xmlns="http://www.w3.org/2000/svg" xmlns:xlink="http://www.w3.org/1999/xlink" width="50" height="50" viewBox="0 0 50 50">
	<defs>
		<filter id="Ellipse_522" x="0" y="0" width="50" height="50" filterUnits="userSpaceOnUse">
			<feOffset input="SourceAlpha" />
			<feGaussianBlur stdDeviation="3" result="blur" />
			<feFlood flood-opacity="0.161" />
			<feComposite operator="in" in2="blur" />
			<feComposite in="SourceGraphic" />
		</filter>
	</defs>
	<g id="Group_11542" data-name="Group 11542" transform="translate(-904 -480)">
		<g id="Group_11533" data-name="Group 11533" transform="translate(913 489)">
			<g id="Group_11533-2" data-name="Group 11533">
				<g transform="matrix(1, 0, 0, 1, -9, -9)" filter="url(#Ellipse_522)">
					<circle id="Ellipse_522-2" data-name="Ellipse 522" cx="16" cy="16" r="16" transform="translate(9 9)" fill="#fff" />
				</g>
			</g>
			<g id="icons8-gmail" transform="translate(5.896 8.302)">
				<path id="Path_10413" data-name="Path 10413" d="M39.812,16.2l-2.406,1.323L35,19.809v7.843h3.368a1.443,1.443,0,0,0,1.444-1.443Z" transform="translate(-19.603 -12.254)" fill="#4caf50" />
				<path id="Path_10414" data-name="Path 10414" d="M3,16.2l1.739.823,3.073,2.786v7.843H4.443A1.443,1.443,0,0,1,3,26.208Z" transform="translate(-3 -12.254)" fill="#1e88e5" />
				<path id="Path_10415" data-name="Path 10415" d="M23.067,11.2l-5.293,3.97L12.481,11.2,12,13.991l.481,3.224,5.293,3.97,5.293-3.97.481-3.224Z" transform="translate(-7.67 -9.66)" fill="#e53935" />
				<path id="Path_10416" data-name="Path 10416" d="M3,10.068v1.878l4.812,3.609V9.54l-1.5-1.126A2.067,2.067,0,0,0,5.068,8h0A2.068,2.068,0,0,0,3,10.068Z" transform="translate(-3 -8)" fill="#c62828" />
				<path id="Path_10417" data-name="Path 10417" d="M39.812,10.068v1.878L35,15.554V9.54l1.5-1.126A2.067,2.067,0,0,1,37.744,8h0A2.068,2.068,0,0,1,39.812,10.068Z" transform="translate(-19.603 -8)" fill="#fbc02d" />
			</g>
		</g>
	</g>
</svg>
