<svg xmlns="http://www.w3.org/2000/svg" xmlns:xlink="http://www.w3.org/1999/xlink" width="32.229" height="32" viewBox="0 0 32.229 32">
	<defs>
		<radialGradient id="radial-gradient" cx="0.372" cy="1.001" r="1.247" gradientUnits="objectBoundingBox">
			<stop offset="0" stop-color="#fd5" />
			<stop offset="0.328" stop-color="#ff543f" />
			<stop offset="0.348" stop-color="#fc5245" />
			<stop offset="0.504" stop-color="#e64771" />
			<stop offset="0.643" stop-color="#d53e91" />
			<stop offset="0.761" stop-color="#cc39a4" />
			<stop offset="0.841" stop-color="#c837ab" />
		</radialGradient>
	</defs>
	<g id="Group_11543" data-name="Group 11543" transform="translate(-872.826 -488.999)">
		<circle id="Ellipse_523" data-name="Ellipse 523" cx="15.999" cy="15.999" r="15.999" transform="translate(872.826 489.001)" fill="#fff" />
		<path id="Subtraction_29" data-name="Subtraction 29" d="M16,32a16,16,0,1,1,11.314-4.686A16.016,16.016,0,0,1,16,32ZM10.664,4.447a6.243,6.243,0,0,0-6.217,6.217V21.329a6.234,6.234,0,0,0,6.212,6.217H21.328a6.231,6.231,0,0,0,6.222-6.212V10.67a6.24,6.24,0,0,0-6.217-6.223ZM21.328,25.775H10.659a4.454,4.454,0,0,1-4.442-4.442V10.67a4.455,4.455,0,0,1,4.442-4.444H21.328a4.455,4.455,0,0,1,4.442,4.444V21.333A4.454,4.454,0,0,1,21.328,25.775ZM15.994,9.781A6.218,6.218,0,1,0,22.216,16,6.224,6.224,0,0,0,15.994,9.781ZM22.657,8a1.334,1.334,0,1,0,1.334,1.334A1.333,1.333,0,0,0,22.657,8ZM16.009,20.435a4.444,4.444,0,0,1-3.15-7.582,4.4,4.4,0,0,1,3.135-1.3,4.441,4.441,0,1,1,.015,8.882Z" transform="translate(873.058 488.999)" fill="url(#radial-gradient)" />
	</g>
</svg>
