<svg xmlns="http://www.w3.org/2000/svg" width="123.195" height="25.576" viewBox="0 0 123.195 25.576">
	<g id="Group_3791" data-name="Group 3791" transform="translate(-9.039 -94.928)">
		<path id="Path_390" data-name="Path 390" d="M9.039,120.481h4.517v-9.356H17.61c5.458,0,9.668-2.612,9.668-8.265,0-5.926-4.093-7.875-9.668-7.875H9.039ZM13.556,107.5V98.612H17.22c3.7,0,5.614,1.053,5.614,4.249,0,3.119-1.793,4.639-5.614,4.639Zm18.4,12.982H47.048v-3.82H36.478V94.986H31.956ZM55.7,110.039l.9-3.119c.819-2.69,1.559-5.569,2.261-8.421h.156c.741,2.807,1.52,5.731,2.3,8.421l.9,3.119Zm9.512,10.442H70l-8.3-25.5H56.4l-8.343,25.5H52.7l1.988-6.9h8.537Z" transform="translate(0 0.023)" fill="#31353f" />
		<path id="Path_391" data-name="Path 391" d="M55.239,120.5V94.931H58.58l9.245,16.061,2.768,5.3h.156q-.117-1.951-.253-4.038t-.139-4.113V94.928h3.08V120.5h-3.35l-9.278-16.1L58.04,99.141h-.156q.157,1.948.292,3.957t.139,4.038V120.5Z" transform="translate(18.123 0)" fill="#ffc32c" />
		<path id="Path_392" data-name="Path 392" d="M78.483,120.5v-9.9L70.8,94.93h3.47l3.314,7.212q.624,1.4,1.208,2.768t1.253,2.807H80.2q.662-1.443,1.325-2.807t1.253-2.768l3.275-7.212h3.392L81.757,110.6v9.9Z" transform="translate(24.229 0.001)" fill="#ffc32c" />
		<path id="Path_393" data-name="Path 393" d="M91.811,120.5v-9.9L84.131,94.93H87.6l3.314,7.212q.624,1.4,1.209,2.768t1.253,2.807h.156q.662-1.443,1.325-2.807t1.253-2.768l3.275-7.212h3.392L95.085,110.6v9.9Z" transform="translate(29.457 0.001)" fill="#ffc32c" />
	</g>
</svg>
