<svg id="sad" xmlns="http://www.w3.org/2000/svg" width="60.313" height="60" viewBox="0 0 60.313 60">
  <circle id="Oval" cx="30" cy="30" r="30" transform="translate(0.313)" fill="#ffc32c"/>
  <path id="Path" d="M2.419,6.774h0A2.419,2.419,0,0,1,0,4.355V2.419A2.419,2.419,0,0,1,2.419,0h0A2.419,2.419,0,0,1,4.839,2.419V4.355A2.419,2.419,0,0,1,2.419,6.774Z" transform="translate(17.419 23.226)" fill="#7d5046"/>
  <path id="Path-2" data-name="Path" d="M.484,0A2.43,2.43,0,0,0,0,.049V3.387a1.452,1.452,0,0,0,2.9,0V2.419A2.419,2.419,0,0,0,.484,0Z" transform="translate(19.355 23.226)" fill="#9c6846"/>
  <path id="Path-3" data-name="Path" d="M2.419,6.774h0A2.419,2.419,0,0,1,0,4.355V2.419A2.419,2.419,0,0,1,2.419,0h0A2.419,2.419,0,0,1,4.839,2.419V4.355A2.419,2.419,0,0,1,2.419,6.774Z" transform="translate(37.742 23.226)" fill="#7d5046"/>
  <path id="Path-4" data-name="Path" d="M.484,0A2.43,2.43,0,0,0,0,.049V3.387a1.452,1.452,0,0,0,2.9,0V2.419A2.419,2.419,0,0,0,.484,0Z" transform="translate(39.677 23.226)" fill="#9c6846"/>
  <path id="Path-5" data-name="Path" d="M1.21,6.29A1.21,1.21,0,0,1,.32,4.261,14.468,14.468,0,0,1,10.887,0,14.464,14.464,0,0,1,21.455,4.262,1.21,1.21,0,1,1,19.674,5.9a12.019,12.019,0,0,0-8.787-3.48A12.02,12.02,0,0,0,2.1,5.9,1.205,1.205,0,0,1,1.21,6.29Z" transform="translate(19.109 38.468)" fill="#aa7346"/>
  <path id="Path-6" data-name="Path" d="M34.355,48.921A30,30,0,0,1,11.079,0a30,30,0,1,0,42.2,42.2A29.871,29.871,0,0,1,34.355,48.921Z" transform="translate(0 6.724)" fill="#f5b002"/>
</svg>
