<svg id="happy" xmlns="http://www.w3.org/2000/svg" width="60" height="60" viewBox="0 0 60 60">
	<circle id="Oval" cx="30" cy="30" r="30" fill="#ffc32c" />
	<path id="Path" d="M34.355,48.921A30,30,0,0,1,11.079,0a30,30,0,1,0,42.2,42.2A29.871,29.871,0,0,1,34.355,48.921Z" transform="translate(0 6.724)" fill="#f5b002" />
	<path id="Path-2" data-name="Path" d="M17.419,1.907A70.408,70.408,0,0,1,1.06.023.934.934,0,0,0,.042,1.264c2.334,8.241,9.225,14.22,17.378,14.22S32.463,9.506,34.8,1.264A.934.934,0,0,0,33.779.023,70.411,70.411,0,0,1,17.419,1.907Z" transform="translate(12.581 33.871)" fill="#9c6846" />
	<g id="Group" transform="translate(12.581 18.387)">
		<path id="Path-3" data-name="Path" d="M33.779.023A70.409,70.409,0,0,1,17.419,1.907,70.4,70.4,0,0,1,1.06.023.934.934,0,0,0,.042,1.264,21.289,21.289,0,0,0,2.759,7.2,78.464,78.464,0,0,0,17.421,8.615,78.473,78.473,0,0,0,32.079,7.2,21.287,21.287,0,0,0,34.8,1.265.934.934,0,0,0,33.779.023Z" transform="translate(0 15.484)" fill="#7d5046" />
		<path id="Path-4" data-name="Path" d="M2.419,8.758h0A2.419,2.419,0,0,1,0,6.339V2.419A2.419,2.419,0,0,1,2.419,0h0A2.419,2.419,0,0,1,4.839,2.419v3.92A2.419,2.419,0,0,1,2.419,8.758Z" transform="translate(4.839)" fill="#7d5046" />
	</g>
	<path id="Path-5" data-name="Path" d="M.484,0A2.43,2.43,0,0,0,0,.049V5.371a1.452,1.452,0,0,0,2.9,0V2.419A2.419,2.419,0,0,0,.484,0Z" transform="translate(19.355 18.387)" fill="#9c6846" />
	<path id="Path-6" data-name="Path" d="M2.419,8.758h0A2.419,2.419,0,0,1,0,6.339V2.419A2.419,2.419,0,0,1,2.419,0h0A2.419,2.419,0,0,1,4.839,2.419v3.92A2.419,2.419,0,0,1,2.419,8.758Z" transform="translate(37.742 18.387)" fill="#7d5046" />
	<path id="Path-7" data-name="Path" d="M.484,0A2.43,2.43,0,0,0,0,.049V5.371a1.452,1.452,0,0,0,2.9,0V2.419A2.419,2.419,0,0,0,.484,0Z" transform="translate(39.677 18.387)" fill="#9c6846" />
	<path id="Path-8" data-name="Path" d="M27.363,2.858A17.9,17.9,0,0,0,28.691,0,71.115,71.115,0,0,1,14.349,1.438,71.1,71.1,0,0,1,0,0,17.873,17.873,0,0,0,1.34,2.867,3.736,3.736,0,0,0,4.1,4.71a84.856,84.856,0,0,0,10.248.627A84.843,84.843,0,0,0,24.6,4.71,3.743,3.743,0,0,0,27.363,2.858Z" transform="translate(15.651 34.34)" fill="#fff" />
</svg>
