<svg xmlns="http://www.w3.org/2000/svg" width="127.963" height="164.149" viewBox="0 0 127.963 164.149">
	<g id="Group_11926" data-name="Group 11926" transform="translate(-3.134 30.122)">
		<path id="Path_340" data-name="Path 340" d="M174.325,25.551c7.4,5.328,13.023,13.319,14.5,25.75,0,0,2.664,24.27-22.2,34.334V97.178s-.592,6.216-8.583,5.92c0,0-9.767.3-9.767-4.144v-7.1H122.233v5.032s-1.184,8.583-9.471,8.583c0,0-8.583-1.48-8.583-7.4V85.634S77.836,71.723,73.1,64.028V41.534l10.951.3s3.256-10.063,8.287-11.543V7.2s15.983,3.256,18.943,12.431c0,0,3.552-.888,8.879-1.776" transform="translate(-69.216 27.813)" fill="none" />
		<circle id="Ellipse_519" data-name="Ellipse 519" cx="16.946" cy="16.946" r="16.946" transform="translate(97.205 -13.176)" fill="#ffc32c" />
		<circle id="Ellipse_520" data-name="Ellipse 520" cx="16.946" cy="16.946" r="16.946" transform="translate(55.325 -30.122)" fill="#ffc32c" />
		<circle id="Ellipse_34" data-name="Ellipse 34" cx="1.776" cy="1.776" r="1.776" transform="translate(29.339 67.57)" fill="none" stroke="#31353f" stroke-linecap="round" stroke-miterlimit="10" stroke-width="1.5" />
		<g id="Group_1224" data-name="Group 1224" transform="translate(3.884 15.773)">
			<g id="Group_1223" data-name="Group 1223">
				<path id="Path_367" data-name="Path 367" d="M172.325,25.551c7.4,5.328,13.023,13.319,14.5,25.75,0,0,2.664,24.27-22.2,34.334V97.178s-.592,6.216-8.583,5.92c0,0-9.767.3-9.767-4.144v-7.1H120.233v5.032s-1.184,8.583-9.471,8.583c0,0-8.583-1.48-8.583-7.4V85.634S75.836,71.723,71.1,64.028V41.534l10.951.3s3.256-10.063,8.287-11.543V7.2s15.983,3.256,18.943,12.431c0,0,3.552-.888,8.879-1.776" transform="translate(-71.1 12.039)" fill="none" stroke="#31353f" stroke-linecap="round" stroke-miterlimit="10" stroke-width="1.5" />
				<circle id="Ellipse_35" data-name="Ellipse 35" cx="25.75" cy="25.75" r="25.75" transform="translate(48.837)" fill="none" />
				<circle id="Ellipse_521" data-name="Ellipse 521" cx="25.75" cy="25.75" r="25.75" transform="translate(49.134)" fill="#ffc32c" />
				<path id="Path_10412" data-name="Path 10412" d="M1.847-5.119a1.342,1.342,0,0,1-1.072-.4,1.352,1.352,0,0,1-.345-.909,1.286,1.286,0,0,1,.345-.891A1.377,1.377,0,0,1,1.847-7.7H15.3a1.342,1.342,0,0,1,1.072.4,1.352,1.352,0,0,1,.345.909,1.286,1.286,0,0,1-.345.891,1.377,1.377,0,0,1-1.072.382H13.333q-1.272,0-2.145-.036a10.506,10.506,0,0,1-1.054-.073v.145a4.6,4.6,0,0,1,1.49,1.09,4.831,4.831,0,0,1,1.09,1.926H15.3a1.342,1.342,0,0,1,1.072.4,1.352,1.352,0,0,1,.345.909,1.286,1.286,0,0,1-.345.891A1.377,1.377,0,0,1,15.3.515H12.9a6.775,6.775,0,0,1-.909,2.853,6.82,6.82,0,0,1-1.763,1.945,7.853,7.853,0,0,1-2.29,1.163,11.5,11.5,0,0,1-2.453.509L13.7,14.872a1.808,1.808,0,0,1,.582,1.309,1.651,1.651,0,0,1-.436,1.163,1.552,1.552,0,0,1-1.2.473,2.456,2.456,0,0,1-.781-.127,2.069,2.069,0,0,1-.781-.527L1.41,7.712a2.453,2.453,0,0,1-.582-.745,1.8,1.8,0,0,1-.182-.781A1.587,1.587,0,0,1,1.083,5.04,1.492,1.492,0,0,1,2.21,4.586h.473a12.571,12.571,0,0,0,2.235-.2,6.5,6.5,0,0,0,2-.691A5.059,5.059,0,0,0,8.426,2.441a3.972,3.972,0,0,0,.8-1.926H1.847A1.342,1.342,0,0,1,.774.115,1.352,1.352,0,0,1,.429-.794a1.286,1.286,0,0,1,.345-.891,1.377,1.377,0,0,1,1.072-.382h7.2Q8.1-5.119,3.482-5.119Z" transform="translate(66.312 20.693)" fill="#31353f" />
			</g>
		</g>
		<path id="Path_10410" data-name="Path 10410" d="M1.481-5.785a1,1,0,0,1-.8-.3,1,1,0,0,1-.256-.674.954.954,0,0,1,.256-.661,1.022,1.022,0,0,1,.8-.283h9.978a1,1,0,0,1,.8.3,1,1,0,0,1,.256.674.954.954,0,0,1-.256.661,1.022,1.022,0,0,1-.8.283H10q-.944,0-1.591-.027a7.8,7.8,0,0,1-.782-.054v.108a3.409,3.409,0,0,1,1.106.809A3.584,3.584,0,0,1,9.544-3.52h1.915a1,1,0,0,1,.8.3,1,1,0,0,1,.256.674.954.954,0,0,1-.256.661,1.022,1.022,0,0,1-.8.283H9.679A5.026,5.026,0,0,1,9,.512,5.06,5.06,0,0,1,7.7,1.955,5.826,5.826,0,0,1,6,2.818a8.532,8.532,0,0,1-1.82.378l6.095,5.852a1.341,1.341,0,0,1,.431.971,1.225,1.225,0,0,1-.324.863,1.151,1.151,0,0,1-.89.351,1.822,1.822,0,0,1-.58-.094,1.535,1.535,0,0,1-.58-.391L1.157,3.734a1.82,1.82,0,0,1-.431-.553A1.335,1.335,0,0,1,.591,2.6a1.177,1.177,0,0,1,.324-.849,1.107,1.107,0,0,1,.836-.337H2.1A9.327,9.327,0,0,0,3.76,1.267,4.824,4.824,0,0,0,5.243.754a3.754,3.754,0,0,0,1.119-.93,2.947,2.947,0,0,0,.593-1.429H1.481a1,1,0,0,1-.8-.3,1,1,0,0,1-.256-.674.954.954,0,0,1,.256-.661,1.022,1.022,0,0,1,.8-.283H6.82q-.7-2.265-4.126-2.265Z" transform="translate(108.29 2.9)" fill="#31353f" />
		<path id="Path_10411" data-name="Path 10411" d="M1.481-5.785a1,1,0,0,1-.8-.3,1,1,0,0,1-.256-.674.954.954,0,0,1,.256-.661,1.022,1.022,0,0,1,.8-.283h9.978a1,1,0,0,1,.8.3,1,1,0,0,1,.256.674.954.954,0,0,1-.256.661,1.022,1.022,0,0,1-.8.283H10q-.944,0-1.591-.027a7.8,7.8,0,0,1-.782-.054v.108a3.409,3.409,0,0,1,1.106.809A3.584,3.584,0,0,1,9.544-3.52h1.915a1,1,0,0,1,.8.3,1,1,0,0,1,.256.674.954.954,0,0,1-.256.661,1.022,1.022,0,0,1-.8.283H9.679A5.026,5.026,0,0,1,9,.512,5.06,5.06,0,0,1,7.7,1.955,5.826,5.826,0,0,1,6,2.818a8.532,8.532,0,0,1-1.82.378l6.095,5.852a1.341,1.341,0,0,1,.431.971,1.225,1.225,0,0,1-.324.863,1.151,1.151,0,0,1-.89.351,1.822,1.822,0,0,1-.58-.094,1.535,1.535,0,0,1-.58-.391L1.157,3.734a1.82,1.82,0,0,1-.431-.553A1.335,1.335,0,0,1,.591,2.6a1.177,1.177,0,0,1,.324-.849,1.107,1.107,0,0,1,.836-.337H2.1A9.327,9.327,0,0,0,3.76,1.267,4.824,4.824,0,0,0,5.243.754a3.754,3.754,0,0,0,1.119-.93,2.947,2.947,0,0,0,.593-1.429H1.481a1,1,0,0,1-.8-.3,1,1,0,0,1-.256-.674.954.954,0,0,1,.256-.661,1.022,1.022,0,0,1,.8-.283H6.82q-.7-2.265-4.126-2.265Z" transform="translate(66.409 -14.046)" fill="#31353f" />
	</g>
</svg>
