<svg xmlns="http://www.w3.org/2000/svg" xmlns:xlink="http://www.w3.org/1999/xlink" width="72.9" height="88.492" viewBox="0 0 72.9 88.492">
	<defs>
		<clipPath id="clip-path">
			<rect id="Rectangle_1711" data-name="Rectangle 1711" width="72.9" height="88.492" transform="translate(0 0)" fill="#31353f" stroke="#31353f" stroke-width="1" />
		</clipPath>
	</defs>
	<g id="Group_11620" data-name="Group 11620" transform="translate(0 0)">
		<g id="Group_11619" data-name="Group 11619" clip-path="url(#clip-path)">
			<path id="Path_10453" data-name="Path 10453" d="M54.625,88.492H26.519a2.756,2.756,0,0,1-2.754-2.753V79.467H16.673A6.467,6.467,0,0,1,10.214,73V63.767l-3.856-.078A3.2,3.2,0,0,1,3.587,59l5.022-9.458a13.882,13.882,0,0,0,1.611-6.483A27.89,27.89,0,0,1,38.1,15.217h.228A27.834,27.834,0,0,1,62.913,55.711,50.2,50.2,0,0,0,57.38,78.527v7.212a2.757,2.757,0,0,1-2.755,2.753M38.1,16.731A26.373,26.373,0,0,0,11.734,43.056,15.415,15.415,0,0,1,9.947,50.25L4.924,59.706a1.685,1.685,0,0,0,1.461,2.47l4.6.092a.756.756,0,0,1,.741.756V73a4.952,4.952,0,0,0,4.946,4.949h7.848a.757.757,0,0,1,.757.758v7.028a1.242,1.242,0,0,0,1.241,1.239H54.625a1.242,1.242,0,0,0,1.241-1.239V78.527a51.731,51.731,0,0,1,5.7-23.507A26.306,26.306,0,0,0,38.313,16.731Z" fill="#31353f" />
			<path id="Path_10453_-_Outline" data-name="Path 10453 - Outline" d="M54.625,88.992H26.519a3.257,3.257,0,0,1-3.254-3.253V79.967H16.673A6.969,6.969,0,0,1,9.714,73V64.257l-3.366-.068a3.7,3.7,0,0,1-3.2-5.426L8.167,49.3A13.376,13.376,0,0,0,9.72,43.056,28.39,28.39,0,0,1,38.1,14.717h.23A28.334,28.334,0,0,1,63.358,55.939,49.7,49.7,0,0,0,57.88,78.527v7.212A3.258,3.258,0,0,1,54.625,88.992ZM38.095,15.717A27.389,27.389,0,0,0,10.72,43.056a14.38,14.38,0,0,1-1.669,6.717L4.029,59.231a2.7,2.7,0,0,0,2.337,3.958l4.348.088V73a5.968,5.968,0,0,0,5.959,5.963h7.592v6.772a2.256,2.256,0,0,0,2.254,2.253H54.625a2.257,2.257,0,0,0,2.255-2.253V78.527a50.708,50.708,0,0,1,5.588-23.044A27.32,27.32,0,0,0,38.321,15.718Zm16.53,71.761H26.519a1.742,1.742,0,0,1-1.741-1.739V78.711a.258.258,0,0,0-.257-.258H16.673A5.454,5.454,0,0,1,11.227,73v-9.98a.257.257,0,0,0-.251-.256l-4.6-.092a2.185,2.185,0,0,1-1.893-3.2l5.023-9.457a14.911,14.911,0,0,0,1.729-6.959A26.874,26.874,0,0,1,38.1,16.231h.216a26.821,26.821,0,0,1,23.7,39.017,51.228,51.228,0,0,0-5.645,23.279v7.212A1.742,1.742,0,0,1,54.625,87.478ZM38.309,17.231H38.1A25.873,25.873,0,0,0,12.234,43.056a15.915,15.915,0,0,1-1.845,7.428L5.366,59.941a1.185,1.185,0,0,0,1.028,1.736l4.6.092a1.262,1.262,0,0,1,1.231,1.256V73a4.453,4.453,0,0,0,4.446,4.449h7.848a1.259,1.259,0,0,1,1.257,1.258v7.028a.741.741,0,0,0,.741.739H54.625a.741.741,0,0,0,.741-.739V78.527a52.232,52.232,0,0,1,5.755-23.735A25.806,25.806,0,0,0,38.309,17.231Z" fill="#31353f" />
			<path id="Path_10454" data-name="Path 10454" d="M38.32,58.911A16.97,16.97,0,1,1,55.305,41.946,16.994,16.994,0,0,1,38.32,58.911m0-32.426A15.456,15.456,0,1,0,53.791,41.946,15.483,15.483,0,0,0,38.32,26.485" fill="#31353f" />
			<path id="Path_10454_-_Outline" data-name="Path 10454 - Outline" d="M38.32,59.411A17.47,17.47,0,1,1,55.805,41.946,17.495,17.495,0,0,1,38.32,59.411Zm0-33.94A16.47,16.47,0,1,0,54.805,41.946,16.5,16.5,0,0,0,38.32,25.471Zm0,32.426A15.956,15.956,0,1,1,54.291,41.946,15.98,15.98,0,0,1,38.32,57.9Zm0-30.912A14.956,14.956,0,1,0,53.291,41.946,14.983,14.983,0,0,0,38.32,26.985Z" fill="#31353f" />
			<path id="Path_10455" data-name="Path 10455" d="M38.32,52.534a10.593,10.593,0,1,1,10.6-10.589,10.608,10.608,0,0,1-10.6,10.589m0-19.672a9.079,9.079,0,1,0,9.088,9.083,9.1,9.1,0,0,0-9.088-9.083" fill="#31353f" />
			<path id="Path_10455_-_Outline" data-name="Path 10455 - Outline" d="M38.32,53.034a11.093,11.093,0,1,1,11.1-11.089A11.109,11.109,0,0,1,38.32,53.034Zm0-21.185a10.093,10.093,0,1,0,10.1,10.1A10.111,10.111,0,0,0,38.32,31.849Zm0,19.671a9.579,9.579,0,1,1,9.588-9.575A9.593,9.593,0,0,1,38.32,51.52Zm0-18.158a8.579,8.579,0,1,0,8.588,8.583A8.6,8.6,0,0,0,38.32,33.362Z" fill="#31353f" />
			<path id="Path_10456" data-name="Path 10456" d="M34.586,7.352A.757.757,0,0,1,33.83,6.6V.756a.757.757,0,0,1,1.514,0V6.6a.757.757,0,0,1-.758.756" fill="#31353f" />
			<path id="Path_10456_-_Outline" data-name="Path 10456 - Outline" d="M34.586,7.852A1.257,1.257,0,0,1,33.33,6.6V.756a1.257,1.257,0,0,1,2.514,0V6.6A1.258,1.258,0,0,1,34.586,7.852Zm0-7.352a.256.256,0,0,0-.256.256V6.6a.257.257,0,0,0,.514,0V.756A.257.257,0,0,0,34.586.5Z" fill="#31353f" />
			<path id="Path_10457" data-name="Path 10457" d="M43.866,7.593a.776.776,0,0,1-.2-.026.757.757,0,0,1-.535-.928L44.65,1a.757.757,0,1,1,1.463.392L44.6,7.032a.758.758,0,0,1-.731.561" fill="#31353f" />
			<path id="Path_10457_-_Outline" data-name="Path 10457 - Outline" d="M43.866,8.093a1.276,1.276,0,0,1-.323-.042,1.261,1.261,0,0,1-.892-1.541L44.167.869A1.257,1.257,0,1,1,46.6,1.52L45.08,7.162A1.26,1.26,0,0,1,43.866,8.093ZM45.382.937a.259.259,0,0,0-.249.192L43.618,6.769a.255.255,0,0,0,.182.315.269.269,0,0,0,.066.009.258.258,0,0,0,.248-.191L45.63,1.261a.258.258,0,0,0-.183-.315A.252.252,0,0,0,45.382.937Z" fill="#31353f" />
			<path id="Path_10458" data-name="Path 10458" d="M52.769,10.227a.741.741,0,0,1-.378-.1.757.757,0,0,1-.277-1.034l2.926-5.06a.756.756,0,1,1,1.31.757l-2.925,5.06a.756.756,0,0,1-.656.379" fill="#31353f" />
			<path id="Path_10458_-_Outline" data-name="Path 10458 - Outline" d="M52.769,10.727a1.246,1.246,0,0,1-.632-.171,1.259,1.259,0,0,1-.457-1.715l2.926-5.06a1.256,1.256,0,1,1,2.176,1.257L53.858,10.1A1.26,1.26,0,0,1,52.769,10.727ZM55.7,4.152a.26.26,0,0,0-.224.129l-2.926,5.06a.258.258,0,0,0,.1.351.245.245,0,0,0,.127.034.254.254,0,0,0,.223-.129l2.925-5.061a.259.259,0,0,0-.095-.353A.251.251,0,0,0,55.7,4.152Z" fill="#31353f" />
			<path id="Path_10459" data-name="Path 10459" d="M60.689,15.068a.758.758,0,0,1-.535-1.292l4.129-4.127a.757.757,0,1,1,1.071,1.07l-4.13,4.127a.755.755,0,0,1-.535.222" fill="#31353f" />
			<path id="Path_10459_-_Outline" data-name="Path 10459 - Outline" d="M60.689,15.568a1.257,1.257,0,0,1-.888-2.146L63.93,9.3a1.256,1.256,0,0,1,1.778,0,1.26,1.26,0,0,1,0,1.777L61.577,15.2A1.248,1.248,0,0,1,60.689,15.568Zm4.129-5.641a.252.252,0,0,0-.18.075l-4.13,4.128a.257.257,0,1,0,.363.363L65,10.365a.257.257,0,0,0-.183-.439Z" fill="#31353f" />
			<path id="Path_10460" data-name="Path 10460" d="M67.086,21.793a.757.757,0,0,1-.379-1.413l5.057-2.916a.757.757,0,1,1,.756,1.311l-5.056,2.917a.765.765,0,0,1-.378.1" fill="#31353f" />
			<path id="Path_10460_-_Outline" data-name="Path 10460 - Outline" d="M67.086,22.293A1.26,1.26,0,0,1,66,21.664a1.256,1.256,0,0,1,.461-1.717l5.056-2.916a1.257,1.257,0,1,1,1.255,2.177l-5.056,2.917A1.273,1.273,0,0,1,67.086,22.293Zm5.055-4.43a.251.251,0,0,0-.127.034l-5.057,2.916a.257.257,0,0,0,.129.48.264.264,0,0,0,.131-.036l5.053-2.915a.256.256,0,0,0,.095-.351A.259.259,0,0,0,72.141,17.863Z" fill="#31353f" />
			<path id="Path_10461" data-name="Path 10461" d="M5.82,28.262a.756.756,0,0,1-.378-.1L.378,25.237a.756.756,0,1,1,.757-1.31L6.2,26.85a.757.757,0,0,1-.38,1.412" fill="#31353f" />
			<path id="Path_10461_-_Outline" data-name="Path 10461 - Outline" d="M5.82,28.762a1.261,1.261,0,0,1-.627-.169L.128,25.67a1.256,1.256,0,1,1,1.257-2.176L6.45,26.417a1.255,1.255,0,0,1,.459,1.717A1.258,1.258,0,0,1,5.82,28.762ZM.757,24.325a.257.257,0,0,0-.129.479l5.064,2.923a.257.257,0,0,0,.377-.289.252.252,0,0,0-.118-.154L.885,24.36A.253.253,0,0,0,.757,24.325Z" fill="#31353f" />
			<path id="Path_10462" data-name="Path 10462" d="M10.666,20.348a.754.754,0,0,1-.534-.221L6,15.992a.757.757,0,1,1,1.071-1.069L11.2,19.057a.756.756,0,0,1-.537,1.291" fill="#31353f" />
			<path id="Path_10462_-_Outline" data-name="Path 10462 - Outline" d="M10.666,20.848a1.247,1.247,0,0,1-.888-.367L5.647,16.345a1.259,1.259,0,0,1,0-1.778,1.255,1.255,0,0,1,1.777,0L11.557,18.7a1.256,1.256,0,0,1-.891,2.144ZM6.536,15.2a.253.253,0,0,0-.179.074.258.258,0,0,0-.077.183.253.253,0,0,0,.075.181l4.131,4.135a.254.254,0,0,0,.18.074.262.262,0,0,0,.185-.076.258.258,0,0,0,0-.361L6.718,15.276A.256.256,0,0,0,6.536,15.2Z" fill="#31353f" />
			<path id="Path_10463" data-name="Path 10463" d="M17.4,13.957a.759.759,0,0,1-.656-.378L13.822,8.525a.757.757,0,0,1,1.31-.758l2.926,5.054a.756.756,0,0,1-.276,1.034.746.746,0,0,1-.378.1" fill="#31353f" />
			<path id="Path_10463_-_Outline" data-name="Path 10463 - Outline" d="M17.4,14.457a1.264,1.264,0,0,1-1.088-.626L13.389,8.776a1.257,1.257,0,1,1,2.177-1.257l2.925,5.052A1.257,1.257,0,0,1,17.4,14.457ZM14.478,7.889a.257.257,0,0,0-.222.387l2.925,5.053a.26.26,0,0,0,.223.129.247.247,0,0,0,.126-.034.258.258,0,0,0,.122-.158.253.253,0,0,0-.026-.193L14.7,8.018A.252.252,0,0,0,14.478,7.889Z" fill="#31353f" />
			<path id="Path_10464" data-name="Path 10464" d="M25.555,9.526a.758.758,0,0,1-.731-.562L23.316,3.323a.757.757,0,1,1,1.462-.391l1.509,5.64a.759.759,0,0,1-.537.928.769.769,0,0,1-.195.026" fill="#31353f" />
			<path id="Path_10464_-_Outline" data-name="Path 10464 - Outline" d="M25.555,10.026a1.258,1.258,0,0,1-1.214-.933L22.833,3.452a1.258,1.258,0,0,1,.889-1.54,1.258,1.258,0,0,1,1.539.891l1.509,5.64a1.262,1.262,0,0,1-.89,1.54A1.279,1.279,0,0,1,25.555,10.026ZM24.046,2.87a.264.264,0,0,0-.067.009.257.257,0,0,0-.18.314l1.508,5.642a.257.257,0,0,0,.248.191.273.273,0,0,0,.068-.01A.259.259,0,0,0,25.8,8.7L24.295,3.061A.258.258,0,0,0,24.046,2.87Z" fill="#31353f" />
		</g>
	</g>
</svg>
