<svg xmlns="http://www.w3.org/2000/svg" width="24" height="24" viewBox="0 0 24 24">
	<path id="icons8-twitter-circled" d="M15,3A12,12,0,1,0,27,15,12,12,0,0,0,15,3Zm6.464,9.535c.006.133.009.265.009.4A8.751,8.751,0,0,1,8,20.305a6.234,6.234,0,0,0,4.556-1.276,3.081,3.081,0,0,1-2.875-2.137,3.089,3.089,0,0,0,1.39-.053A3.078,3.078,0,0,1,8.6,13.822v-.039A3.058,3.058,0,0,0,10,14.168a3.081,3.081,0,0,1-.953-4.108,8.737,8.737,0,0,0,6.343,3.216,3.112,3.112,0,0,1-.079-.7,3.078,3.078,0,0,1,5.323-2.106,6.185,6.185,0,0,0,1.955-.747,3.09,3.09,0,0,1-1.354,1.7A6.149,6.149,0,0,0,23,10.941,6.2,6.2,0,0,1,21.464,12.535Z" transform="translate(-3 -3)" fill="#31353f" />
</svg>
