<svg xmlns="http://www.w3.org/2000/svg" width="32" height="32" viewBox="0 0 32 32">
	<g id="Group_11546" data-name="Group 11546" transform="translate(-751 -487)">
		<g id="Group_11537" data-name="Group 11537" transform="translate(751 487)">
			<circle id="Ellipse_526" data-name="Ellipse 526" cx="16" cy="16" r="16" fill="#fff" />
			<path id="icons8-twitter-circled_1_" data-name="icons8-twitter-circled (1)" d="M19,3A16,16,0,1,0,35,19,16,16,0,0,0,19,3Zm8.619,12.713c.008.177.012.353.012.529A11.669,11.669,0,0,1,9.667,26.073a8.312,8.312,0,0,0,6.075-1.7,4.108,4.108,0,0,1-3.833-2.849,4.119,4.119,0,0,0,1.853-.071,4.1,4.1,0,0,1-3.292-4.023v-.052a4.077,4.077,0,0,0,1.859.513,4.109,4.109,0,0,1-1.271-5.477A11.649,11.649,0,0,0,19.515,16.7a4.15,4.15,0,0,1-.105-.935,4.1,4.1,0,0,1,7.1-2.808,8.247,8.247,0,0,0,2.607-1,4.12,4.12,0,0,1-1.805,2.271,8.2,8.2,0,0,0,2.357-.645A8.272,8.272,0,0,1,27.619,15.713Z" transform="translate(-3 -3)" fill="#00d0ff" />
		</g>
	</g>
</svg>
