<svg xmlns="http://www.w3.org/2000/svg" width="24" height="24" viewBox="0 0 24 24">
	<g id="Group_3465" data-name="Group 3465" transform="translate(-996 -72)">
		<g id="Group_3143" data-name="Group 3143" transform="translate(996.218 72)">
			<rect id="Rectangle_289" data-name="Rectangle 289" width="24" height="24" transform="translate(-0.218)" fill="#fff" opacity="0" />
			<g id="Group_2726" data-name="Group 2726" transform="translate(3.025 2.824)">
				<g id="Group_349" data-name="Group 349">
					<g id="Group_3468" data-name="Group 3468" transform="translate(0.757 -0.825)">
						<g id="Group_348" data-name="Group 348" transform="translate(3.905 1)">
							<g id="Group_347" data-name="Group 347">
								<path id="Path_275" data-name="Path 275" d="M1209.985,78.924a4.13,4.13,0,1,1-4.129-4.131A4.129,4.129,0,0,1,1209.985,78.924Z" transform="translate(-1201.725 -74.793)" fill="none" stroke="#ffb500" stroke-miterlimit="10" stroke-width="1.5" />
							</g>
						</g>
						<path id="Path_276" data-name="Path 276" d="M1214.254,89.255h-14.09a1.022,1.022,0,0,1-1.021-1.023h0a5.467,5.467,0,0,1,5.468-5.468h5.2a5.467,5.467,0,0,1,5.468,5.468h0A1.022,1.022,0,0,1,1214.254,89.255Z" transform="translate(-1199.143 -70.707)" fill="none" stroke="#ffb500" stroke-miterlimit="10" stroke-width="1.5" />
					</g>
				</g>
			</g>
		</g>
	</g>
</svg>
