<svg xmlns="http://www.w3.org/2000/svg" width="24" height="24" viewBox="0 0 24 24">
	<g id="Group_3841" data-name="Group 3841" transform="translate(-1304 -290)">
		<circle id="Ellipse_502" data-name="Ellipse 502" cx="12" cy="12" r="12" transform="translate(1304 290)" fill="#31353f" />
		<path id="iconmonstr-link-3" d="M10.119,4.139a.886.886,0,0,1,0,1.255L5.393,10.12A.887.887,0,0,1,4.138,8.865L8.865,4.139a.887.887,0,0,1,1.254,0ZM4.69,12.091A1.785,1.785,0,1,1,2.166,9.568l3.35-3.346a3.428,3.428,0,0,0-3.237.908L1,8.4a3.429,3.429,0,0,0,4.85,4.85l1.276-1.276a3.427,3.427,0,0,0,.907-3.237L4.69,12.091ZM8.4,1,7.129,2.28A3.423,3.423,0,0,0,6.22,5.515L9.567,2.167a1.785,1.785,0,0,1,2.524,2.524L8.743,8.039a3.425,3.425,0,0,0,3.235-.909l1.275-1.276A3.429,3.429,0,0,0,8.4,1Z" transform="translate(1309 295)" fill="#fff" />
	</g>
</svg>
