<svg xmlns="http://www.w3.org/2000/svg" width="24" height="24" viewBox="0 0 24 24">
	<path id="icons8-whatsapp" d="M15,3A11.98,11.98,0,0,0,4.711,21.15L3.107,27l5.975-1.568A12,12,0,1,0,15,3ZM10.893,9.4c.195,0,.4,0,.568.008.214.005.447.021.67.514.265.586.842,2.056.916,2.205a.536.536,0,0,1,.023.52,2.179,2.179,0,0,1-.293.5c-.149.172-.312.386-.447.516-.149.149-.3.312-.131.609a8.89,8.89,0,0,0,1.652,2.057A8.069,8.069,0,0,0,16.242,17.8c.3.149.471.126.643-.074s.743-.864.943-1.162.394-.246.664-.148,1.735.818,2.033.967.493.223.568.344a2.453,2.453,0,0,1-.17,1.414,2.989,2.989,0,0,1-2,1.41c-.549.051-1.061.247-3.568-.74a12.182,12.182,0,0,1-5.08-4.488,5.761,5.761,0,0,1-1.211-3.07A3.347,3.347,0,0,1,10.1,9.773,1.092,1.092,0,0,1,10.893,9.4Z" transform="translate(-3 -3)" fill="#31353f" />
</svg>
