<svg xmlns="http://www.w3.org/2000/svg" width="32" height="32" viewBox="0 0 32 32">
	<g id="Group_11917" data-name="Group 11917" transform="translate(-1458.817 -609.996)">
		<circle id="Ellipse_528" data-name="Ellipse 528" cx="16" cy="16" r="16" transform="translate(1458.817 609.996)" fill="#fff" />
		<path id="icons8-whatsapp_1_" data-name="icons8-whatsapp (1)" d="M19,3A15.974,15.974,0,0,0,5.281,27.2L3.143,35l7.966-2.091A16,16,0,1,0,19,3Zm-5.477,8.536c.26,0,.527,0,.758.01.285.007.6.028.893.685.353.781,1.123,2.741,1.221,2.94a.715.715,0,0,1,.031.693,2.9,2.9,0,0,1-.391.664c-.2.229-.416.514-.6.688-.2.2-.4.417-.174.813a11.854,11.854,0,0,0,2.2,2.742,10.758,10.758,0,0,0,3.188,1.966c.4.2.627.168.857-.1s.991-1.152,1.258-1.549.525-.329.885-.2,2.314,1.09,2.711,1.289.658.3.758.458a3.271,3.271,0,0,1-.227,1.885,3.986,3.986,0,0,1-2.672,1.88c-.732.068-1.415.329-4.758-.987-4.032-1.588-6.575-5.718-6.773-5.984a7.681,7.681,0,0,1-1.615-4.094,4.463,4.463,0,0,1,1.383-3.307A1.457,1.457,0,0,1,13.523,11.536Z" transform="translate(1455.817 606.996)" fill="#00de3f" />
	</g>
</svg>
